<svg width="86" height="37" viewBox="0 0 86 37" fill="none" xmlns="http://www.w3.org/2000/svg">
<rect x="0.589844" y="0.580078" width="84.91" height="36" rx="4" fill="#DEF9EC"/>
<g clip-path="url(#clip0_6511_1347)">
<path d="M34.5898 11.3067H23.0632V11.1201C23.001 10.6845 22.8065 10.319 22.4798 10.0234C22.1532 9.72786 21.7565 9.58008 21.2898 9.58008H20.5898V10.7467H21.2898C21.4454 10.7467 21.5776 10.7934 21.6865 10.8867C21.7954 10.9801 21.8654 11.1045 21.8965 11.2601L22.8298 19.1001C22.861 19.5667 23.0398 19.9401 23.3665 20.2201C23.6932 20.5001 24.0898 20.6556 24.5565 20.6867H32.2565V19.4734H24.5565C24.401 19.4734 24.2687 19.4267 24.1598 19.3334C24.051 19.2401 23.981 19.1156 23.9498 18.9601L23.9032 18.3067H33.3298L34.5898 11.3067ZM32.3498 17.1401H23.7632L23.2032 12.4734H33.1898L32.3498 17.1401ZM23.5298 22.4134C23.4987 22.7245 23.5998 22.9967 23.8332 23.2301C24.0665 23.4634 24.3465 23.5801 24.6732 23.5801C24.9998 23.5801 25.2721 23.4634 25.4898 23.2301C25.7076 22.9967 25.8243 22.7245 25.8398 22.4134C25.8554 22.1023 25.7465 21.8301 25.5132 21.5967C25.2798 21.3634 24.9998 21.2467 24.6732 21.2467C24.3465 21.2467 24.0743 21.3634 23.8565 21.5967C23.6387 21.8301 23.5298 22.1023 23.5298 22.4134ZM29.3632 22.4134C29.3321 22.7245 29.4332 22.9967 29.6665 23.2301C29.8998 23.4634 30.1798 23.5801 30.5065 23.5801C30.8332 23.5801 31.1054 23.4634 31.3232 23.2301C31.541 22.9967 31.6576 22.7245 31.6732 22.4134C31.6887 22.1023 31.5798 21.8301 31.3465 21.5967C31.1132 21.3634 30.8332 21.2467 30.5065 21.2467C30.1798 21.2467 29.9076 21.3634 29.6898 21.5967C29.4721 21.8301 29.3632 22.1023 29.3632 22.4134Z" fill="#3BB77E"/>
</g>
<path d="M46.0648 19.7581L44.8328 16.3911C44.7722 16.2417 44.7092 16.0644 44.6438 15.8591C44.5785 15.6537 44.5132 15.4321 44.4478 15.1941C44.3872 15.4321 44.3242 15.6561 44.2588 15.8661C44.1935 16.0714 44.1305 16.2511 44.0698 16.4051L42.8448 19.7581H46.0648ZM49.3898 23.5801H47.9338C47.7705 23.5801 47.6375 23.5404 47.5348 23.4611C47.4322 23.3771 47.3552 23.2744 47.3038 23.1531L46.5478 21.0881H42.3548L41.5988 23.1531C41.5615 23.2604 41.4892 23.3584 41.3818 23.4471C41.2745 23.5357 41.1415 23.5801 40.9828 23.5801H39.5128L43.4958 13.4581H45.4138L49.3898 23.5801ZM54.5222 18.2321C54.3262 17.9941 54.1115 17.8261 53.8782 17.7281C53.6495 17.6301 53.4022 17.5811 53.1362 17.5811C52.8748 17.5811 52.6392 17.6301 52.4292 17.7281C52.2192 17.8261 52.0395 17.9754 51.8902 18.1761C51.7408 18.3721 51.6265 18.6241 51.5472 18.9321C51.4678 19.2354 51.4282 19.5947 51.4282 20.0101C51.4282 20.4301 51.4608 20.7871 51.5262 21.0811C51.5962 21.3704 51.6942 21.6084 51.8202 21.7951C51.9462 21.9771 52.1002 22.1101 52.2822 22.1941C52.4642 22.2734 52.6672 22.3131 52.8912 22.3131C53.2505 22.3131 53.5562 22.2384 53.8082 22.0891C54.0602 21.9397 54.2982 21.7274 54.5222 21.4521V18.2321ZM56.2512 13.1781V23.5801H55.1942C54.9655 23.5801 54.8208 23.4751 54.7602 23.2651L54.6132 22.5721C54.3238 22.9034 53.9902 23.1717 53.6122 23.3771C53.2388 23.5824 52.8025 23.6851 52.3032 23.6851C51.9112 23.6851 51.5518 23.6034 51.2252 23.4401C50.8985 23.2767 50.6162 23.0411 50.3782 22.7331C50.1448 22.4204 49.9628 22.0354 49.8322 21.5781C49.7062 21.1207 49.6432 20.5981 49.6432 20.0101C49.6432 19.4781 49.7155 18.9834 49.8602 18.5261C50.0048 18.0687 50.2125 17.6721 50.4832 17.3361C50.7538 17.0001 51.0782 16.7387 51.4562 16.5521C51.8342 16.3607 52.2588 16.2651 52.7302 16.2651C53.1315 16.2651 53.4745 16.3281 53.7592 16.4541C54.0438 16.5801 54.2982 16.7504 54.5222 16.9651V13.1781H56.2512ZM62.4655 18.2321C62.2695 17.9941 62.0548 17.8261 61.8215 17.7281C61.5928 17.6301 61.3455 17.5811 61.0795 17.5811C60.8182 17.5811 60.5825 17.6301 60.3725 17.7281C60.1625 17.8261 59.9828 17.9754 59.8335 18.1761C59.6842 18.3721 59.5698 18.6241 59.4905 18.9321C59.4112 19.2354 59.3715 19.5947 59.3715 20.0101C59.3715 20.4301 59.4042 20.7871 59.4695 21.0811C59.5395 21.3704 59.6375 21.6084 59.7635 21.7951C59.8895 21.9771 60.0435 22.1101 60.2255 22.1941C60.4075 22.2734 60.6105 22.3131 60.8345 22.3131C61.1938 22.3131 61.4995 22.2384 61.7515 22.0891C62.0035 21.9397 62.2415 21.7274 62.4655 21.4521V18.2321ZM64.1945 13.1781V23.5801H63.1375C62.9088 23.5801 62.7642 23.4751 62.7035 23.2651L62.5565 22.5721C62.2672 22.9034 61.9335 23.1717 61.5555 23.3771C61.1822 23.5824 60.7458 23.6851 60.2465 23.6851C59.8545 23.6851 59.4952 23.6034 59.1685 23.4401C58.8418 23.2767 58.5595 23.0411 58.3215 22.7331C58.0882 22.4204 57.9062 22.0354 57.7755 21.5781C57.6495 21.1207 57.5865 20.5981 57.5865 20.0101C57.5865 19.4781 57.6588 18.9834 57.8035 18.5261C57.9482 18.0687 58.1558 17.6721 58.4265 17.3361C58.6972 17.0001 59.0215 16.7387 59.3995 16.5521C59.7775 16.3607 60.2022 16.2651 60.6735 16.2651C61.0748 16.2651 61.4178 16.3281 61.7025 16.4541C61.9872 16.5801 62.2415 16.7504 62.4655 16.9651V13.1781H64.1945Z" fill="#3BB77E"/>
<defs>
<clipPath id="clip0_6511_1347">
<rect width="14" height="14" fill="white" transform="matrix(1 0 0 -1 20.5898 23.5801)"/>
</clipPath>
</defs>
</svg>
