<svg width="139" height="31" viewBox="0 0 139 31" fill="none" xmlns="http://www.w3.org/2000/svg">
<g clip-path="url(#clip0_6511_7406)">
<g clip-path="url(#clip1_6511_7406)">
<g clip-path="url(#clip2_6511_7406)">
<path d="M4.69141 11.675L4.31641 9.61249V7.73749C4.37891 7.29998 4.54141 6.42499 4.69141 6.42499C4.84141 6.42499 5.81641 6.04999 6.56641 5.86249L8.06641 5.67499C8.44141 5.67499 8.62891 5.67499 10.5039 5.29999C10.651 5.27059 11.6289 5.11249 12.0039 5.11249L11.4414 4.36249L12.1914 5.11249L12.9414 5.86249L13.1289 6.42499C12.8789 6.4875 12.3039 6.61249 12.0039 6.61249H10.5039L9.75391 6.98749V7.54999C9.75391 7.69999 9.62892 8.98748 9.56641 9.61249L9.37891 11.4875L8.62891 11.675H5.06641H4.69141Z" fill="#FDC040"/>
<path d="M18.5664 6.61246L19.3164 5.67496L21.7539 3.98746L24.5664 2.86246C25.4414 2.61246 27.4164 2.22496 28.3164 2.67496C29.4414 3.23746 29.6289 3.42496 30.5664 5.11246C30.5039 6.42496 30.2664 9.16246 29.8164 9.61246L28.8789 11.3L28.3164 11.675H25.5039H21.3789H20.0664V10.3625C20.0664 10.175 19.8789 8.86246 19.8789 8.67496V7.54996L19.6914 6.79996L19.3164 6.61246H18.5664Z" fill="#FDC040"/>
<path d="M22.4788 5.28218C22.2179 5.54307 22.0742 5.88991 22.0742 6.25883C22.0742 6.62772 22.2179 6.97456 22.4787 7.23544L25.6714 10.4282C25.9323 10.689 26.2791 10.8326 26.648 10.8326C27.0169 10.8326 27.3637 10.689 27.6245 10.4282C27.8854 10.1673 28.0291 9.82043 28.0291 9.45154C28.0291 9.08262 27.8854 8.73578 27.6246 8.47489L24.4319 5.28214C23.8934 4.74368 23.0171 4.74383 22.4788 5.28218ZM27.0031 9.09646C27.0979 9.19126 27.1502 9.31741 27.1502 9.45154C27.1502 9.58564 27.0979 9.71176 27.0031 9.80663C26.9083 9.90147 26.7821 9.95371 26.648 9.95371C26.5138 9.95371 26.3877 9.90147 26.2929 9.80663L23.1001 6.61384C23.0053 6.51904 22.9531 6.39289 22.9531 6.25876C22.9531 6.12462 23.0053 5.99854 23.1002 5.90367C23.1981 5.80576 23.3266 5.75682 23.4553 5.75682C23.5839 5.75682 23.7126 5.80576 23.8104 5.90367L27.0031 9.09646Z" fill="#3BB77E"/>
<path d="M30.8346 13.3728C30.6508 12.4649 29.9954 11.7368 29.157 11.4277C31.2361 7.95909 31.5243 4.71087 29.8611 3.04752C29.1314 2.31795 28.0747 1.9444 26.8029 1.96784C26.5602 1.97229 26.3671 2.17263 26.3715 2.41527C26.3759 2.65523 26.5718 2.84672 26.8108 2.84672C26.8135 2.84672 26.8163 2.84672 26.819 2.84666C27.8595 2.82738 28.6749 3.1043 29.2396 3.66899C30.1128 4.54224 30.1364 5.86902 30.0024 6.82831C29.813 8.18491 29.1992 9.7148 28.2257 11.2658C25.691 11.2175 23.1454 11.1841 20.5957 11.1658C20.5791 9.66905 20.4865 8.15405 20.3182 6.65532C20.2952 6.45072 20.1332 6.28947 19.9284 6.26742C19.7974 6.25336 19.6661 6.24084 19.535 6.22782C21.3902 4.65901 23.3736 3.55397 25.1993 3.08292C25.4344 3.02227 25.5757 2.78261 25.515 2.54759C25.4544 2.31256 25.2146 2.17116 24.9797 2.23187C24.2801 2.41241 23.5605 2.67866 22.8352 3.02186C22.9764 2.4076 23.0438 1.67123 22.7741 1.12177C22.6117 0.790643 22.3427 0.564874 21.9964 0.468837C21.4833 0.326682 20.6862 0.401333 19.8006 1.56476C19.7578 1.62107 19.7164 1.67779 19.6766 1.73421C19.6718 1.71752 19.6669 1.70087 19.6619 1.68417C19.4878 1.10513 19.0329 0.133667 17.9401 0.133667C17.5605 0.133667 17.2296 0.284962 16.983 0.571144C16.661 0.944809 16.5201 1.5252 16.4696 2.10366C16.085 1.59786 15.6191 1.19132 15.1152 1.19132C14.7878 1.19132 14.4892 1.35809 14.2746 1.66091C13.7091 2.45864 13.7009 4.18745 14.2262 5.99877C14.0946 6.00042 13.9632 6.00339 13.8317 6.00616C12.9707 5.00146 11.9299 4.31004 11.4746 4.03336V3.07002C11.681 3.03387 11.8378 2.85428 11.8378 2.63759V1.39682C11.8378 0.728123 11.2938 0.184118 10.6251 0.184118H7.89233C7.22363 0.184118 6.67962 0.728123 6.67962 1.39682V2.63759C6.67962 2.85428 6.83659 3.03387 7.04292 3.07002L7.04258 4.03317C6.44922 4.39355 4.86421 5.4557 3.97712 6.998C3.79618 7.31127 3.71239 7.67232 3.73506 8.04294C3.7776 8.71839 3.88325 10.0315 4.11289 11.2577C3.93294 11.261 3.75282 11.264 3.57299 11.2675C2.35231 11.2905 1.29044 12.176 1.0482 13.3726C0.905817 14.0737 0.905817 14.7847 1.04815 15.4854C1.22593 16.365 1.84898 17.0909 2.6719 17.4113C2.72018 18.3059 2.80286 19.5781 2.93822 21.024C2.57545 22.0515 2.22012 23.0793 1.87546 24.1051C1.57891 24.9887 1.97595 25.9692 2.79958 26.3863C3.11295 26.5445 3.44244 26.6672 3.77965 26.7526C4.09484 27.6463 4.65736 28.4174 5.41958 28.9937C6.26123 29.63 7.26417 29.9664 8.31994 29.9664H23.5629C24.6187 29.9664 25.6216 29.63 26.4633 28.9937C27.2256 28.4173 27.7881 27.6462 28.1033 26.7523C28.4421 26.6663 28.7715 26.5434 29.0835 26.3857C29.9073 25.9694 30.3044 24.9887 30.0074 24.1045C29.6624 23.0781 29.3072 22.0503 28.9447 21.0236C29.08 19.5778 29.1627 18.3056 29.211 17.4111C30.0348 17.0898 30.6571 16.3644 30.8346 15.4859C30.977 14.7846 30.977 14.0736 30.8346 13.3728ZM19.4826 7.10506C19.6233 8.45454 19.7015 9.81511 19.7168 11.1606C16.4571 11.1417 13.1921 11.1471 9.93567 11.1772C9.95063 9.82644 10.0289 8.46027 10.17 7.10499C13.2615 6.79655 16.391 6.79655 19.4826 7.10506ZM14.9916 2.16917C15.0236 2.12405 15.071 2.07026 15.1152 2.07026C15.4316 2.07026 16.0952 2.97299 16.5672 4.04517C16.6449 4.23515 16.8451 4.34682 17.049 4.3115C17.2596 4.27494 17.4134 4.09224 17.4134 3.87849C17.4134 3.85175 17.4108 3.82497 17.4059 3.79861C17.1862 2.31361 17.4304 1.39829 17.6489 1.14486C17.7288 1.0521 17.8159 1.01255 17.9401 1.01255C18.9533 1.01255 18.9872 3.02837 18.9872 3.04817C18.9872 3.25589 19.1327 3.43508 19.3359 3.47797C19.5395 3.52092 19.7448 3.41551 19.8288 3.22548C20.143 2.51477 21.0279 1.11269 21.7614 1.3159C21.8659 1.34484 21.9327 1.40262 21.9849 1.50903C22.1718 1.89002 22.0718 2.73269 21.7444 3.5937C20.5821 4.26185 19.4229 5.11655 18.3237 6.12365C17.266 6.0461 16.2053 6.0038 15.1442 5.99679C14.5319 4.07705 14.6753 2.61544 14.9916 2.16917ZM10.5957 3.84601H7.92162L7.92192 3.07706H10.5958L10.5957 3.84601ZM7.89233 1.063H10.6251C10.8092 1.063 10.9589 1.21271 10.9589 1.39676V2.19794H7.55858V1.39682C7.55858 1.21277 7.70828 1.063 7.89233 1.063ZM4.97941 11.1099C4.75658 9.92652 4.65373 8.64579 4.6123 7.98852C4.60029 7.7915 4.64383 7.601 4.73862 7.4369C5.57686 5.9795 7.19689 4.9622 7.59946 4.7249H10.9178C11.1746 4.87606 11.9283 5.34537 12.6581 6.04475C11.6777 6.08919 10.6991 6.16276 9.72439 6.2675C9.51961 6.28947 9.35757 6.45072 9.33462 6.6554C9.16557 8.16106 9.07291 9.68289 9.05693 11.1861C7.70757 11.2004 6.35982 11.2186 5.01492 11.2414C5.00048 11.1985 4.98796 11.1548 4.97941 11.1099ZM3.56209 17.5904C3.56578 17.5905 3.56941 17.5908 3.5731 17.5909L3.58717 17.5912C3.78422 17.5948 3.98128 17.598 4.1784 17.6016C4.00226 18.075 3.82735 18.549 3.65449 19.0237C3.61576 18.4883 3.58552 18.0053 3.56209 17.5904ZM23.5629 29.0874H8.31991C6.76797 29.0874 5.36269 28.1559 4.73221 26.7662C5.30952 26.6222 5.81018 26.2067 6.03998 25.6206C6.29326 24.975 6.52336 24.3803 6.74348 23.8025C6.82992 23.5757 6.71614 23.3218 6.48931 23.2353C6.26247 23.149 6.00859 23.2627 5.92216 23.4895C5.70301 24.0647 5.47388 24.6567 5.22169 25.2997C5.03959 25.7642 4.54316 26.0303 4.06583 25.9182C3.76594 25.8482 3.47314 25.7418 3.1961 25.6019C2.7595 25.3808 2.54996 24.8575 2.70864 24.3849C3.83538 21.0319 5.06442 17.6552 6.36158 14.3487C6.54398 13.8841 7.04074 13.6178 7.51677 13.7293C7.81962 13.8004 8.11246 13.907 8.38771 14.0465C8.82439 14.2671 9.03376 14.7902 8.87476 15.2633C8.13736 17.4574 7.35241 19.6729 6.54158 21.8483C6.45679 22.0757 6.57244 22.3288 6.79988 22.4136C7.02732 22.4984 7.28037 22.3827 7.36516 22.1553C7.91768 20.6727 8.45783 19.1717 8.97968 17.6714C11.2905 17.6965 13.6157 17.7095 15.9414 17.7095C18.2672 17.7095 20.5927 17.6966 22.9037 17.6714C23.8314 20.3388 24.816 23.0039 25.8427 25.6202C26.0726 26.2063 26.5733 26.6218 27.1507 26.7659C26.5203 28.1557 25.1148 29.0874 23.5629 29.0874ZM28.687 25.6012C28.4106 25.7408 28.1177 25.8475 27.8163 25.9181C27.3401 26.0297 26.8433 25.7636 26.661 25.2991C25.3665 22.0001 24.1374 18.6234 23.008 15.2628C22.8491 14.7898 23.0585 14.2667 23.4952 14.046C23.7714 13.9064 24.0644 13.7997 24.3658 13.7291C24.4389 13.712 24.5124 13.7037 24.5852 13.7037C24.9871 13.7037 25.3668 13.9548 25.5212 14.3481C26.8157 17.6471 28.0446 21.0237 29.1741 24.3845C29.333 24.8574 29.1236 25.3805 28.687 25.6012ZM27.7047 17.6016C27.9015 17.598 28.0983 17.5948 28.2951 17.5912L28.3108 17.5908C28.3141 17.5908 28.3175 17.5904 28.3208 17.5904C28.2973 18.0051 28.2671 18.488 28.2284 19.0231C28.0555 18.5485 27.8807 18.0747 27.7047 17.6016ZM29.9731 15.3113C29.8402 15.9689 29.3334 16.4983 28.6794 16.6606C28.5561 16.692 28.4258 16.7093 28.2933 16.7121L28.2787 16.7124C27.9783 16.718 27.678 16.7232 27.3776 16.7283C27.0366 15.8235 26.6906 14.9223 26.3393 14.027C25.9987 13.1587 25.0637 12.6627 24.1653 12.8733C23.796 12.9599 23.4371 13.0905 23.0987 13.2616C22.2749 13.6779 21.8777 14.6586 22.1748 15.5428C22.3151 15.9602 22.4569 16.3778 22.6001 16.7955C18.1778 16.8414 13.7045 16.8414 9.28216 16.7955C9.42548 16.3777 9.56776 15.9601 9.70774 15.5434C10.0051 14.6589 9.60788 13.6782 8.78434 13.2622C8.44729 13.0914 8.08838 12.9607 7.71736 12.8736C6.81889 12.6632 5.88424 13.1593 5.54326 14.0276C5.19188 14.9232 4.84598 15.8243 4.50525 16.7284C4.20465 16.7233 3.90399 16.718 3.6034 16.7125L3.59045 16.7122C3.45679 16.7094 3.32659 16.692 3.20073 16.66C2.54926 16.4983 2.0424 15.9689 1.90945 15.311C1.79067 14.7259 1.79067 14.1326 1.90951 13.5473C2.07076 12.7508 2.77731 12.1616 3.58963 12.1463C11.7856 11.989 20.097 11.989 28.2931 12.1463C29.1053 12.1616 29.8118 12.7508 29.9732 13.5476C30.092 14.1325 30.092 14.7258 29.9731 15.3113Z" fill="#3BB77E"/>
<path d="M10.132 19.2139H10.1023C9.09586 19.2163 8.28368 20.0107 8.25331 21.0224C8.21765 22.2139 8.21765 23.4223 8.25331 24.6138C8.28368 25.6255 9.09582 26.4199 10.1027 26.4223H10.132C11.1384 26.4199 11.9506 25.6255 11.981 24.6138C12.0167 23.4223 12.0167 22.2139 11.981 21.0224C11.9505 20.0106 11.1384 19.2163 10.132 19.2139ZM11.1024 24.5875C11.0866 25.1133 10.6503 25.5421 10.1302 25.5433H10.1044C9.58392 25.5421 9.14761 25.1133 9.13186 24.5875C9.09665 23.4134 9.09665 22.2228 9.13186 21.0487C9.14761 20.5228 9.58392 20.0941 10.1047 20.0928H10.1295C10.65 20.0941 11.0866 20.5228 11.1024 21.0487C11.1376 22.2228 11.1376 23.4134 11.1024 24.5875Z" fill="#3BB77E"/>
<path d="M15.9562 19.2139H15.9265C14.9201 19.2163 14.1079 20.0107 14.0775 21.0224C14.0419 22.2139 14.0419 23.4223 14.0775 24.6138C14.1079 25.6255 14.92 26.4199 15.9269 26.4223H15.9562C16.9627 26.4199 17.7748 25.6255 17.8052 24.6138C17.8408 23.4223 17.8408 22.2139 17.8052 21.0224C17.7748 20.0107 16.9627 19.2163 15.9562 19.2139ZM16.9266 24.5875C16.9108 25.1133 16.4746 25.5421 15.9545 25.5433H15.9287C15.4082 25.5421 14.9719 25.1133 14.9561 24.5875C14.9209 23.4134 14.9209 22.2228 14.9561 21.0487C14.9719 20.5228 15.4082 20.0941 15.929 20.0928H15.9538C16.4743 20.0941 16.9108 20.5228 16.9266 21.0487C16.9618 22.2228 16.9618 23.4134 16.9266 24.5875Z" fill="#3BB77E"/>
<path d="M21.7803 19.2139H21.7507C20.7442 19.2163 19.9321 20.0107 19.9018 21.0224C19.8661 22.2139 19.8661 23.4223 19.9018 24.6138C19.9321 25.6255 20.7442 26.4199 21.7511 26.4223H21.7804C22.7869 26.4199 23.599 25.6255 23.6294 24.6138C23.6651 23.4223 23.6651 22.2139 23.6294 21.0224C23.599 20.0107 22.7869 19.2163 21.7803 19.2139ZM22.7508 24.5875C22.7351 25.1133 22.2988 25.5421 21.7787 25.5433H21.7529C21.2324 25.5421 20.7961 25.1133 20.7804 24.5875C20.7451 23.4134 20.7451 22.2228 20.7804 21.0487C20.7961 20.5228 21.2324 20.0941 21.7532 20.0928H21.778C22.2985 20.0941 22.7351 20.5228 22.7509 21.0487C22.786 22.2228 22.786 23.4134 22.7508 24.5875Z" fill="#3BB77E"/>
</g>
</g>
</g>
<path d="M57.6594 10.519V20.55H56.4694V13.179C56.4694 13.081 56.4717 12.976 56.4764 12.864C56.4857 12.752 56.4951 12.6377 56.5044 12.521L53.0604 18.793C52.9531 19.003 52.7897 19.108 52.5704 19.108H52.3744C52.1551 19.108 51.9917 19.003 51.8844 18.793L48.3704 12.493C48.3984 12.7403 48.4124 12.969 48.4124 13.179V20.55H47.2224V10.519H48.2234C48.3447 10.519 48.4381 10.5307 48.5034 10.554C48.5687 10.5773 48.6317 10.6427 48.6924 10.75L52.1574 16.924C52.2134 17.036 52.2671 17.1527 52.3184 17.274C52.3744 17.3953 52.4257 17.519 52.4724 17.645C52.5191 17.519 52.5681 17.3953 52.6194 17.274C52.6707 17.148 52.7267 17.029 52.7874 16.917L56.1894 10.75C56.2454 10.6427 56.3061 10.5773 56.3714 10.554C56.4414 10.5307 56.5371 10.519 56.6584 10.519H57.6594ZM61.137 13.459V20.55H59.891V13.459H61.137ZM61.403 11.233C61.403 11.3543 61.3773 11.4687 61.326 11.576C61.2793 11.6787 61.214 11.772 61.13 11.856C61.0507 11.9353 60.955 11.9983 60.843 12.045C60.7357 12.0917 60.6213 12.115 60.5 12.115C60.3787 12.115 60.2643 12.0917 60.157 12.045C60.0543 11.9983 59.9633 11.9353 59.884 11.856C59.8047 11.772 59.7417 11.6787 59.695 11.576C59.6483 11.4687 59.625 11.3543 59.625 11.233C59.625 11.1117 59.6483 10.9973 59.695 10.89C59.7417 10.778 59.8047 10.6823 59.884 10.603C59.9633 10.519 60.0543 10.4537 60.157 10.407C60.2643 10.3603 60.3787 10.337 60.5 10.337C60.6213 10.337 60.7357 10.3603 60.843 10.407C60.955 10.4537 61.0507 10.519 61.13 10.603C61.214 10.6823 61.2793 10.778 61.326 10.89C61.3773 10.9973 61.403 11.1117 61.403 11.233ZM64.4723 10.239V20.55H63.2263V10.239H64.4723ZM67.7459 10.239V16.308H68.0679C68.1612 16.308 68.2382 16.2963 68.2989 16.273C68.3642 16.245 68.4319 16.1913 68.5019 16.112L70.7419 13.711C70.8072 13.6317 70.8749 13.571 70.9449 13.529C71.0195 13.4823 71.1175 13.459 71.2389 13.459H72.3659L69.7549 16.238C69.6289 16.3967 69.4935 16.5203 69.3489 16.609C69.4329 16.665 69.5075 16.7303 69.5729 16.805C69.6429 16.875 69.7082 16.9567 69.7689 17.05L72.5409 20.55H71.4279C71.3205 20.55 71.2272 20.5337 71.1479 20.501C71.0732 20.4637 71.0079 20.3983 70.9519 20.305L68.6209 17.4C68.5509 17.302 68.4809 17.239 68.4109 17.211C68.3455 17.1783 68.2429 17.162 68.1029 17.162H67.7459V20.55H66.4929V10.239H67.7459ZM77.7322 14.628C77.6762 14.7307 77.5899 14.782 77.4732 14.782C77.4032 14.782 77.3239 14.7563 77.2352 14.705C77.1466 14.6537 77.0369 14.5977 76.9062 14.537C76.7802 14.4717 76.6286 14.4133 76.4512 14.362C76.2739 14.306 76.0639 14.278 75.8212 14.278C75.6112 14.278 75.4222 14.306 75.2542 14.362C75.0862 14.4133 74.9416 14.4857 74.8202 14.579C74.7036 14.6723 74.6126 14.782 74.5472 14.908C74.4866 15.0293 74.4562 15.1623 74.4562 15.307C74.4562 15.489 74.5076 15.6407 74.6102 15.762C74.7176 15.8833 74.8576 15.9883 75.0302 16.077C75.2029 16.1657 75.3989 16.245 75.6182 16.315C75.8376 16.3803 76.0616 16.4527 76.2902 16.532C76.5236 16.6067 76.7499 16.6907 76.9692 16.784C77.1886 16.8773 77.3846 16.994 77.5572 17.134C77.7299 17.274 77.8676 17.4467 77.9702 17.652C78.0776 17.8527 78.1312 18.0953 78.1312 18.38C78.1312 18.7067 78.0729 19.01 77.9562 19.29C77.8396 19.5653 77.6669 19.8057 77.4382 20.011C77.2096 20.2117 76.9296 20.3703 76.5982 20.487C76.2669 20.6037 75.8842 20.662 75.4502 20.662C74.9556 20.662 74.5076 20.5827 74.1062 20.424C73.7049 20.2607 73.3642 20.053 73.0842 19.801L73.3782 19.325C73.4156 19.2643 73.4599 19.2177 73.5112 19.185C73.5626 19.1523 73.6279 19.136 73.7072 19.136C73.7912 19.136 73.8799 19.1687 73.9732 19.234C74.0666 19.2993 74.1786 19.3717 74.3092 19.451C74.4446 19.5303 74.6079 19.6027 74.7992 19.668C74.9906 19.7333 75.2286 19.766 75.5132 19.766C75.7559 19.766 75.9682 19.7357 76.1502 19.675C76.3322 19.6097 76.4839 19.5233 76.6052 19.416C76.7266 19.3087 76.8152 19.185 76.8712 19.045C76.9319 18.905 76.9622 18.7557 76.9622 18.597C76.9622 18.401 76.9086 18.24 76.8012 18.114C76.6986 17.9833 76.5609 17.8737 76.3882 17.785C76.2156 17.6917 76.0172 17.6123 75.7932 17.547C75.5739 17.477 75.3476 17.4047 75.1142 17.33C74.8856 17.2553 74.6592 17.1713 74.4352 17.078C74.2159 16.98 74.0199 16.8587 73.8472 16.714C73.6746 16.5693 73.5346 16.392 73.4272 16.182C73.3246 15.9673 73.2732 15.7083 73.2732 15.405C73.2732 15.1343 73.3292 14.8753 73.4412 14.628C73.5532 14.376 73.7166 14.1567 73.9312 13.97C74.1459 13.7787 74.4096 13.627 74.7222 13.515C75.0349 13.403 75.3919 13.347 75.7932 13.347C76.2599 13.347 76.6776 13.4217 77.0462 13.571C77.4196 13.7157 77.7416 13.9163 78.0122 14.173L77.7322 14.628ZM85.6349 15.608C85.1402 15.8693 84.7669 16.1867 84.5149 16.56C84.2676 16.9333 84.1439 17.3393 84.1439 17.778C84.1439 18.0813 84.1999 18.3497 84.3119 18.583C84.4239 18.8117 84.5709 19.0053 84.7529 19.164C84.9349 19.3227 85.1426 19.444 85.3759 19.528C85.6092 19.6073 85.8472 19.647 86.0899 19.647C86.6126 19.647 87.0816 19.5513 87.4969 19.36C87.9169 19.1687 88.2832 18.912 88.5959 18.59L85.6349 15.608ZM92.1029 20.55H90.8919C90.7566 20.55 90.6469 20.5337 90.5629 20.501C90.4789 20.4683 90.3879 20.4007 90.2899 20.298L89.2749 19.276C88.8362 19.7007 88.3299 20.039 87.7559 20.291C87.1866 20.5383 86.5589 20.662 85.8729 20.662C85.4996 20.662 85.1332 20.599 84.7739 20.473C84.4192 20.347 84.0996 20.165 83.8149 19.927C83.5302 19.6843 83.3016 19.3903 83.1289 19.045C82.9562 18.6997 82.8699 18.31 82.8699 17.876C82.8699 17.5493 82.9236 17.2413 83.0309 16.952C83.1429 16.658 83.2969 16.3873 83.4929 16.14C83.6889 15.8927 83.9199 15.671 84.1859 15.475C84.4519 15.279 84.7436 15.111 85.0609 14.971C84.7762 14.607 84.5662 14.257 84.4309 13.921C84.2956 13.5803 84.2279 13.228 84.2279 12.864C84.2279 12.5233 84.2886 12.2037 84.4099 11.905C84.5359 11.6063 84.7156 11.3473 84.9489 11.128C85.1822 10.904 85.4646 10.729 85.7959 10.603C86.1319 10.4723 86.5076 10.407 86.9229 10.407C87.2916 10.407 87.6276 10.4677 87.9309 10.589C88.2342 10.7057 88.4956 10.862 88.7149 11.058C88.9342 11.254 89.1069 11.4827 89.2329 11.744C89.3636 12.0007 89.4382 12.269 89.4569 12.549L88.6799 12.703C88.5259 12.7403 88.4116 12.668 88.3369 12.486C88.3042 12.3647 88.2506 12.2387 88.1759 12.108C88.1059 11.9773 88.0126 11.8583 87.8959 11.751C87.7839 11.6437 87.6462 11.555 87.4829 11.485C87.3242 11.415 87.1376 11.38 86.9229 11.38C86.6896 11.38 86.4772 11.4173 86.2859 11.492C86.0992 11.5667 85.9382 11.6717 85.8029 11.807C85.6722 11.9377 85.5719 12.094 85.5019 12.276C85.4319 12.4533 85.3969 12.647 85.3969 12.857C85.3969 13.0203 85.4156 13.1767 85.4529 13.326C85.4902 13.4753 85.5486 13.627 85.6279 13.781C85.7119 13.935 85.8169 14.0913 85.9429 14.25C86.0689 14.4087 86.2206 14.5767 86.3979 14.754L89.2819 17.687C89.4592 17.3697 89.6016 17.0407 89.7089 16.7C89.8162 16.3547 89.8862 16.0117 89.9189 15.671C89.9282 15.5823 89.9562 15.5123 90.0029 15.461C90.0496 15.4097 90.1149 15.384 90.1989 15.384H90.9619C90.9572 15.9207 90.8732 16.448 90.7099 16.966C90.5466 17.4793 90.3109 17.9623 90.0029 18.415L92.1029 20.55ZM105.778 15.538C105.778 16.2893 105.659 16.973 105.421 17.589C105.183 18.205 104.847 18.7323 104.413 19.171C103.979 19.6097 103.456 19.9503 102.845 20.193C102.238 20.431 101.566 20.55 100.829 20.55H97.0837V10.519H100.829C101.566 10.519 102.238 10.6403 102.845 10.883C103.456 11.121 103.979 11.4617 104.413 11.905C104.847 12.3437 105.183 12.871 105.421 13.487C105.659 14.103 105.778 14.7867 105.778 15.538ZM104.385 15.538C104.385 14.922 104.301 14.3713 104.133 13.886C103.965 13.4007 103.727 12.99 103.419 12.654C103.111 12.318 102.737 12.0613 102.299 11.884C101.86 11.7067 101.37 11.618 100.829 11.618H98.4417V19.451H100.829C101.37 19.451 101.86 19.3623 102.299 19.185C102.737 19.0077 103.111 18.7533 103.419 18.422C103.727 18.086 103.965 17.6753 104.133 17.19C104.301 16.7047 104.385 16.154 104.385 15.538ZM111.105 17.358C110.531 17.3767 110.041 17.4233 109.635 17.498C109.234 17.568 108.905 17.6613 108.648 17.778C108.396 17.8947 108.212 18.0323 108.095 18.191C107.983 18.3497 107.927 18.527 107.927 18.723C107.927 18.9097 107.958 19.0707 108.018 19.206C108.079 19.3413 108.161 19.4533 108.263 19.542C108.371 19.626 108.494 19.689 108.634 19.731C108.779 19.7683 108.933 19.787 109.096 19.787C109.316 19.787 109.516 19.766 109.698 19.724C109.88 19.6773 110.051 19.612 110.209 19.528C110.373 19.444 110.527 19.3437 110.671 19.227C110.821 19.1103 110.965 18.9773 111.105 18.828V17.358ZM107.08 14.46C107.472 14.082 107.895 13.7997 108.347 13.613C108.8 13.4263 109.302 13.333 109.852 13.333C110.249 13.333 110.601 13.3983 110.909 13.529C111.217 13.6597 111.476 13.8417 111.686 14.075C111.896 14.3083 112.055 14.5907 112.162 14.922C112.27 15.2533 112.323 15.6173 112.323 16.014V20.55H111.77C111.649 20.55 111.556 20.5313 111.49 20.494C111.425 20.452 111.374 20.3727 111.336 20.256L111.196 19.584C111.01 19.7567 110.828 19.9107 110.65 20.046C110.473 20.1767 110.286 20.2887 110.09 20.382C109.894 20.4707 109.684 20.5383 109.46 20.585C109.241 20.6363 108.996 20.662 108.725 20.662C108.45 20.662 108.191 20.6247 107.948 20.55C107.706 20.4707 107.493 20.354 107.311 20.2C107.134 20.046 106.992 19.8523 106.884 19.619C106.782 19.381 106.73 19.101 106.73 18.779C106.73 18.499 106.807 18.2307 106.961 17.974C107.115 17.7127 107.365 17.4817 107.71 17.281C108.056 17.0803 108.506 16.917 109.061 16.791C109.617 16.6603 110.298 16.5857 111.105 16.567V16.014C111.105 15.4633 110.986 15.048 110.748 14.768C110.51 14.4833 110.163 14.341 109.705 14.341C109.397 14.341 109.138 14.3807 108.928 14.46C108.723 14.5347 108.543 14.621 108.389 14.719C108.24 14.8123 108.109 14.8987 107.997 14.978C107.89 15.0527 107.783 15.09 107.675 15.09C107.591 15.09 107.519 15.069 107.458 15.027C107.398 14.9803 107.346 14.9243 107.304 14.859L107.08 14.46ZM115.537 13.459V20.55H114.291V13.459H115.537ZM115.803 11.233C115.803 11.3543 115.778 11.4687 115.726 11.576C115.68 11.6787 115.614 11.772 115.53 11.856C115.451 11.9353 115.355 11.9983 115.243 12.045C115.136 12.0917 115.022 12.115 114.9 12.115C114.779 12.115 114.665 12.0917 114.557 12.045C114.455 11.9983 114.364 11.9353 114.284 11.856C114.205 11.772 114.142 11.6787 114.095 11.576C114.049 11.4687 114.025 11.3543 114.025 11.233C114.025 11.1117 114.049 10.9973 114.095 10.89C114.142 10.778 114.205 10.6823 114.284 10.603C114.364 10.519 114.455 10.4537 114.557 10.407C114.665 10.3603 114.779 10.337 114.9 10.337C115.022 10.337 115.136 10.3603 115.243 10.407C115.355 10.4537 115.451 10.519 115.53 10.603C115.614 10.6823 115.68 10.778 115.726 10.89C115.778 10.9973 115.803 11.1117 115.803 11.233ZM118.768 14.88C118.992 14.3947 119.267 14.0167 119.594 13.746C119.92 13.4707 120.319 13.333 120.791 13.333C120.94 13.333 121.082 13.3493 121.218 13.382C121.358 13.4147 121.481 13.466 121.589 13.536L121.498 14.467C121.47 14.5837 121.4 14.642 121.288 14.642C121.222 14.642 121.127 14.628 121.001 14.6C120.875 14.572 120.732 14.558 120.574 14.558C120.35 14.558 120.149 14.5907 119.972 14.656C119.799 14.7213 119.643 14.8193 119.503 14.95C119.367 15.076 119.244 15.2347 119.132 15.426C119.024 15.6127 118.926 15.8273 118.838 16.07V20.55H117.585V13.459H118.299C118.434 13.459 118.527 13.4847 118.579 13.536C118.63 13.5873 118.665 13.676 118.684 13.802L118.768 14.88ZM124 13.459V20.55H122.754V13.459H124ZM124.266 11.233C124.266 11.3543 124.241 11.4687 124.189 11.576C124.143 11.6787 124.077 11.772 123.993 11.856C123.914 11.9353 123.818 11.9983 123.706 12.045C123.599 12.0917 123.485 12.115 123.363 12.115C123.242 12.115 123.128 12.0917 123.02 12.045C122.918 11.9983 122.827 11.9353 122.747 11.856C122.668 11.772 122.605 11.6787 122.558 11.576C122.512 11.4687 122.488 11.3543 122.488 11.233C122.488 11.1117 122.512 10.9973 122.558 10.89C122.605 10.778 122.668 10.6823 122.747 10.603C122.827 10.519 122.918 10.4537 123.02 10.407C123.128 10.3603 123.242 10.337 123.363 10.337C123.485 10.337 123.599 10.3603 123.706 10.407C123.818 10.4537 123.914 10.519 123.993 10.603C124.077 10.6823 124.143 10.778 124.189 10.89C124.241 10.9973 124.266 11.1117 124.266 11.233ZM130.794 16.231C130.794 15.9417 130.752 15.678 130.668 15.44C130.588 15.1973 130.469 14.9897 130.311 14.817C130.157 14.6397 129.968 14.5043 129.744 14.411C129.52 14.313 129.265 14.264 128.981 14.264C128.383 14.264 127.91 14.439 127.56 14.789C127.214 15.1343 127 15.615 126.916 16.231H130.794ZM131.802 19.556C131.648 19.7427 131.463 19.906 131.249 20.046C131.034 20.1813 130.803 20.2933 130.556 20.382C130.313 20.4707 130.061 20.536 129.8 20.578C129.538 20.6247 129.279 20.648 129.023 20.648C128.533 20.648 128.08 20.5663 127.665 20.403C127.254 20.235 126.897 19.9923 126.594 19.675C126.295 19.353 126.062 18.9563 125.894 18.485C125.726 18.0137 125.642 17.4723 125.642 16.861C125.642 16.3663 125.716 15.9043 125.866 15.475C126.02 15.0457 126.239 14.6747 126.524 14.362C126.808 14.0447 127.156 13.7973 127.567 13.62C127.977 13.438 128.439 13.347 128.953 13.347C129.377 13.347 129.769 13.4193 130.129 13.564C130.493 13.704 130.805 13.9093 131.067 14.18C131.333 14.446 131.54 14.7773 131.69 15.174C131.839 15.566 131.914 16.014 131.914 16.518C131.914 16.714 131.893 16.8447 131.851 16.91C131.809 16.9753 131.729 17.008 131.613 17.008H126.874C126.888 17.456 126.948 17.8457 127.056 18.177C127.168 18.5083 127.322 18.786 127.518 19.01C127.714 19.2293 127.947 19.395 128.218 19.507C128.488 19.6143 128.792 19.668 129.128 19.668C129.44 19.668 129.709 19.633 129.933 19.563C130.161 19.4883 130.357 19.409 130.521 19.325C130.684 19.241 130.819 19.164 130.927 19.094C131.039 19.0193 131.134 18.982 131.214 18.982C131.316 18.982 131.396 19.0217 131.452 19.101L131.802 19.556ZM137.574 14.628C137.518 14.7307 137.432 14.782 137.315 14.782C137.245 14.782 137.166 14.7563 137.077 14.705C136.988 14.6537 136.879 14.5977 136.748 14.537C136.622 14.4717 136.47 14.4133 136.293 14.362C136.116 14.306 135.906 14.278 135.663 14.278C135.453 14.278 135.264 14.306 135.096 14.362C134.928 14.4133 134.783 14.4857 134.662 14.579C134.545 14.6723 134.454 14.782 134.389 14.908C134.328 15.0293 134.298 15.1623 134.298 15.307C134.298 15.489 134.349 15.6407 134.452 15.762C134.559 15.8833 134.699 15.9883 134.872 16.077C135.045 16.1657 135.241 16.245 135.46 16.315C135.679 16.3803 135.903 16.4527 136.132 16.532C136.365 16.6067 136.592 16.6907 136.811 16.784C137.03 16.8773 137.226 16.994 137.399 17.134C137.572 17.274 137.709 17.4467 137.812 17.652C137.919 17.8527 137.973 18.0953 137.973 18.38C137.973 18.7067 137.915 19.01 137.798 19.29C137.681 19.5653 137.509 19.8057 137.28 20.011C137.051 20.2117 136.771 20.3703 136.44 20.487C136.109 20.6037 135.726 20.662 135.292 20.662C134.797 20.662 134.349 20.5827 133.948 20.424C133.547 20.2607 133.206 20.053 132.926 19.801L133.22 19.325C133.257 19.2643 133.302 19.2177 133.353 19.185C133.404 19.1523 133.47 19.136 133.549 19.136C133.633 19.136 133.722 19.1687 133.815 19.234C133.908 19.2993 134.02 19.3717 134.151 19.451C134.286 19.5303 134.45 19.6027 134.641 19.668C134.832 19.7333 135.07 19.766 135.355 19.766C135.598 19.766 135.81 19.7357 135.992 19.675C136.174 19.6097 136.326 19.5233 136.447 19.416C136.568 19.3087 136.657 19.185 136.713 19.045C136.774 18.905 136.804 18.7557 136.804 18.597C136.804 18.401 136.75 18.24 136.643 18.114C136.54 17.9833 136.403 17.8737 136.23 17.785C136.057 17.6917 135.859 17.6123 135.635 17.547C135.416 17.477 135.189 17.4047 134.956 17.33C134.727 17.2553 134.501 17.1713 134.277 17.078C134.058 16.98 133.862 16.8587 133.689 16.714C133.516 16.5693 133.376 16.392 133.269 16.182C133.166 15.9673 133.115 15.7083 133.115 15.405C133.115 15.1343 133.171 14.8753 133.283 14.628C133.395 14.376 133.558 14.1567 133.773 13.97C133.988 13.7787 134.251 13.627 134.564 13.515C134.877 13.403 135.234 13.347 135.635 13.347C136.102 13.347 136.519 13.4217 136.888 13.571C137.261 13.7157 137.583 13.9163 137.854 14.173L137.574 14.628Z" fill="#253D4E"/>
<defs>
<clipPath id="clip0_6511_7406">
<rect width="30" height="30" fill="white" transform="translate(0.941406 0.0499878)"/>
</clipPath>
<clipPath id="clip1_6511_7406">
<rect width="30" height="30" fill="white" transform="translate(0.941406 0.0499878)"/>
</clipPath>
<clipPath id="clip2_6511_7406">
<rect width="30" height="30" fill="white" transform="translate(0.941406 0.0499878)"/>
</clipPath>
</defs>
</svg>
