<svg width="99" height="31" viewBox="0 0 99 31" fill="none" xmlns="http://www.w3.org/2000/svg">
<g clip-path="url(#clip0_6511_7421)">
<g clip-path="url(#clip1_6511_7421)">
<g clip-path="url(#clip2_6511_7421)">
<mask id="mask0_6511_7421" style="mask-type:luminance" maskUnits="userSpaceOnUse" x="0" y="0" width="31" height="31">
<path d="M30.9414 0.0499878H0.941406V30.05H30.9414V0.0499878Z" fill="white"/>
</mask>
<g mask="url(#mask0_6511_7421)">
<path d="M25.1289 13.3625H13.8789V14.1125L14.0664 14.4875L15.0039 15.425L15.7539 15.8L16.1289 16.3625L15.9414 17.1125L14.6289 17.675L13.8789 18.9875L13.6914 22.925L14.2539 27.2375L14.6289 28.55L15.3789 29.3C15.5664 29.3625 16.0164 29.4875 16.3164 29.4875C16.6914 29.4875 18.3789 29.675 18.7539 29.675H20.8164H22.1289L21.7539 28.925C21.6289 28.6125 21.3789 27.875 21.3789 27.425C21.3789 26.975 21.2539 25.7375 21.1914 25.175V22.3625C21.1914 22.0625 21.5664 19.8625 21.7539 18.8V18.2375C21.7539 18.05 22.3164 18.05 22.5039 17.8625C22.6914 17.675 23.2539 17.675 23.4414 17.675C23.6289 17.675 24.1914 17.4875 24.3789 17.4875C24.5664 17.4875 24.1914 17.3 24.0039 17.1125C23.8164 16.925 24.0039 16.925 24.0039 16.7375C24.0039 16.55 24.0039 16.175 23.8164 15.9875C23.6664 15.8375 24.1289 15.55 24.3789 15.425C24.5664 15.3625 24.9414 15.2 24.9414 15.05C24.9414 14.9 25.3164 14.7375 25.5039 14.675L25.8789 14.1125V13.55L25.1289 13.3625Z" fill="#FDC040"/>
<path d="M3.77734 23.1473C3.77734 24.0865 4.54147 24.8507 5.48068 24.8507C6.4199 24.8507 7.18404 24.0865 7.18404 23.1473C7.18404 22.208 6.4199 21.4439 5.48068 21.4439C4.54147 21.4439 3.77734 22.208 3.77734 23.1473ZM6.30519 23.1473C6.30519 23.6019 5.93537 23.9717 5.48072 23.9717C5.0261 23.9717 4.65631 23.6019 4.65631 23.1473C4.65631 22.6927 5.02614 22.3228 5.48072 22.3228C5.93529 22.3228 6.30519 22.6927 6.30519 23.1473Z" fill="#3BB77E"/>
<path d="M7.64573 20.7992C8.38519 20.7992 8.9868 20.1976 8.9868 19.4582C8.9868 18.7187 8.38519 18.1171 7.64573 18.1171C6.90626 18.1171 6.30469 18.7187 6.30469 19.4582C6.30469 20.1976 6.90626 20.7992 7.64573 20.7992ZM7.64573 18.996C7.90061 18.996 8.10791 19.2033 8.10791 19.4581C8.10791 19.7129 7.90061 19.9202 7.64573 19.9202C7.39091 19.9202 7.18357 19.7129 7.18357 19.4581C7.18357 19.2033 7.39095 18.996 7.64573 18.996Z" fill="#3BB77E"/>
<path d="M12.3228 26.299C12.3228 25.5596 11.7212 24.958 10.9817 24.958C10.2423 24.958 9.64062 25.5596 9.64062 26.299C9.64062 27.0385 10.2423 27.6401 10.9817 27.6401C11.7212 27.6401 12.3228 27.0385 12.3228 26.299ZM10.5196 26.299C10.5196 26.0442 10.7269 25.8369 10.9818 25.8369C11.2367 25.8369 11.444 26.0442 11.444 26.299C11.444 26.5539 11.2367 26.7612 10.9818 26.7612C10.7269 26.7612 10.5196 26.5539 10.5196 26.299Z" fill="#3BB77E"/>
<path d="M30.0051 18.8848C29.8785 17.9643 29.0833 17.2701 28.1553 17.2701H27.844L28.144 16.4901C28.2311 16.2636 28.1181 16.0093 27.8915 15.9222C27.6649 15.835 27.4107 15.9482 27.3237 16.1747L26.9024 17.2701H25.0737C25.0117 17.2404 24.949 17.2125 24.8852 17.1887C24.4283 17.0184 24.1967 16.7531 24.1967 16.4004C24.1967 16.0718 24.7523 15.8052 24.9916 15.7056C25.7016 15.4094 26.2105 14.7828 26.3529 14.0292C26.6478 12.4643 26.7818 10.7899 26.8355 9.93053C26.8628 9.48428 26.7617 9.0477 26.5434 8.66801C25.3961 6.67324 23.3179 5.31499 22.6229 4.89923V3.49389H22.6458C22.8885 3.49389 23.0852 3.29714 23.0852 3.05444V1.47423C23.0852 0.688894 22.4463 0.0499878 21.6609 0.0499878H18.1806C17.3953 0.0499878 16.7563 0.688894 16.7563 1.47423V3.05444C16.7563 3.29714 16.953 3.49389 17.1958 3.49389H17.2188V4.89904C16.7702 5.16735 15.7454 5.82866 14.7667 6.7998V6.49148C15.2672 6.22069 15.608 5.69085 15.608 5.0829C15.608 4.20041 14.8901 3.48253 14.0076 3.48253H7.06392C6.18147 3.48253 5.46357 4.20049 5.46357 5.0829C5.46357 5.691 5.80452 6.22091 6.30526 6.49166V7.83623C5.70372 8.18715 4.06962 9.23021 2.63008 10.9595C2.37145 11.271 2.20663 11.6491 2.15343 12.053C2.08188 12.5965 1.97466 13.4838 1.87024 14.6243C1.84809 14.866 2.0261 15.0799 2.2678 15.102C2.28139 15.1032 2.29493 15.1039 2.30835 15.1039C2.53294 15.1039 2.7246 14.9326 2.74546 14.7045C2.84858 13.5783 2.95422 12.7033 3.02477 12.1678C3.04774 11.9935 3.10598 11.8277 3.19458 11.6796H13.1534C13.2309 12.4106 13.3392 13.2343 13.4887 14.0289C13.6304 14.7825 14.1393 15.4094 14.8504 15.7057C15.0891 15.8051 15.6443 16.0716 15.6443 16.4004C15.6443 16.7532 15.413 17.0184 14.9563 17.1887C14.1363 17.495 13.5581 18.2505 13.4834 19.1133C13.3104 21.1037 13.182 24.9551 14.2661 28.3867C14.3574 28.6759 14.4998 28.9373 14.6812 29.1628C14.5968 29.168 14.5122 29.1711 14.4273 29.1711H6.64381C4.51921 29.1711 2.73303 27.5144 2.57741 25.3995C2.37643 22.6677 2.3861 19.6553 2.60624 16.446C2.62282 16.2038 2.44 15.9941 2.1979 15.9775C1.95596 15.9607 1.74596 16.1436 1.72938 16.3858C1.50643 19.6365 1.49682 22.6908 1.70091 25.4639C1.7929 26.7148 2.35065 27.8737 3.27139 28.7274C4.19131 29.5802 5.38902 30.05 6.64381 30.05H14.4274C14.852 30.05 15.2724 29.9961 15.6795 29.8902C15.949 29.9935 16.2408 30.0497 16.5438 30.0497L28.1553 30.05C29.0833 30.05 29.8785 29.3558 30.0051 28.4352C30.4407 25.2666 30.4407 22.0534 30.0051 18.8848ZM29.4119 25.3208C29.0618 25.5349 28.6636 25.6476 28.2485 25.6476C27.0168 25.6476 26.0149 24.6458 26.0149 23.4146C26.0149 22.183 27.0169 21.181 28.2485 21.181C28.6523 21.181 29.0406 21.2876 29.383 21.4903C29.464 22.7658 29.4739 24.0446 29.4119 25.3208ZM25.9583 9.87623C25.9163 10.5478 25.8241 11.7291 25.6422 12.9528H14.1997C14.0181 11.7302 13.9253 10.5483 13.8828 9.87675C13.8661 9.60251 13.9272 9.33626 14.0601 9.10601C14.1137 9.01279 14.1699 8.92106 14.2281 8.83073H25.6134C25.6716 8.92106 25.7279 9.01283 25.7815 9.10605C25.9139 9.33623 25.9749 9.6027 25.9583 9.87623ZM7.18418 6.68333H13.8878V7.65416H7.18418V6.68333ZM17.6352 1.47423C17.6352 1.17352 17.8799 0.928894 18.1806 0.928894H21.6609C21.9616 0.928894 22.2063 1.17352 22.2063 1.47423V2.61499H17.6352V1.47423ZM21.744 3.49389V4.71375H18.0977V3.49389H21.744ZM17.7741 5.59268H22.0674C22.4385 5.80939 23.8329 6.66896 24.9487 7.95187H14.8928C16.0086 6.66874 17.4035 5.80913 17.7741 5.59268ZM7.06392 4.36144H14.0076C14.4054 4.36144 14.7291 4.6851 14.7291 5.0829C14.7291 5.48059 14.4057 5.80406 14.0081 5.80436H7.06336C6.66574 5.80406 6.34242 5.48051 6.34242 5.0829C6.34242 4.6851 6.66608 4.36144 7.06392 4.36144ZM3.95688 10.8006C5.22507 9.50051 6.51121 8.72936 6.85774 8.5332H13.3784C13.3515 8.57771 13.3245 8.62215 13.2986 8.6673C13.0796 9.04676 12.9783 9.48353 13.0057 9.93131C13.0205 10.1663 13.0415 10.4627 13.07 10.8006H3.95688ZM28.1553 29.1711H23.2979L22.9897 29.1708C22.5012 29.1679 22.0833 28.8013 22.0165 28.3155C21.9473 27.8118 21.8891 27.3049 21.8436 26.8088C21.8213 26.5671 21.6074 26.3889 21.3657 26.4114C21.124 26.4336 20.9461 26.6475 20.9684 26.8892C21.0152 27.3983 21.0749 27.9184 21.1458 28.4352C21.1827 28.7036 21.2768 28.9525 21.4141 29.1707H16.5438C15.8808 29.1707 15.3023 28.7493 15.1043 28.122C14.066 24.8353 14.1917 21.1147 14.359 19.1892C14.4046 18.6624 14.7598 18.2003 15.2636 18.0121C16.0641 17.7136 16.5233 17.1261 16.5233 16.4003C16.5233 15.9667 16.2916 15.3533 15.1883 14.8944C14.7517 14.7124 14.4392 14.3281 14.3525 13.8664C14.3503 13.8549 14.3482 13.8432 14.3461 13.8316H25.4956C25.4935 13.8431 25.4914 13.8546 25.4892 13.866C25.4019 14.328 25.0893 14.7124 24.6536 14.8943C23.5494 15.3536 23.3177 15.9668 23.3177 16.4004C23.3177 16.7219 23.4082 17.016 23.5782 17.2701H22.9955C22.0675 17.2701 21.2723 17.9643 21.1457 18.8848C20.862 20.9445 20.7624 23.0432 20.8496 25.1225C20.8598 25.365 21.0669 25.553 21.307 25.5431C21.5495 25.533 21.7379 25.3281 21.7277 25.0857C21.6428 23.0586 21.7399 21.0127 22.0164 19.0046C22.0836 18.5169 22.5044 18.149 22.9955 18.149H28.1553C28.6464 18.149 29.0673 18.5169 29.1344 19.0046C29.2022 19.4972 29.2578 19.9909 29.304 20.4854C28.9687 20.3646 28.6131 20.3021 28.2485 20.3021C26.5322 20.3021 25.136 21.6983 25.136 23.4146C25.136 25.1305 26.5322 26.5264 28.2485 26.5264C28.6291 26.5264 28.9995 26.4585 29.3475 26.3271C29.2955 26.9913 29.2253 27.6544 29.1344 28.3154C29.0673 28.8032 28.6464 29.1711 28.1553 29.1711Z" fill="#3BB77E"/>
</g>
</g>
</g>
</g>
<path d="M54.2644 18.478C54.3391 18.478 54.4044 18.5083 54.4604 18.569L54.9994 19.15C54.5887 19.626 54.0894 19.997 53.5014 20.263C52.9181 20.529 52.2111 20.662 51.3804 20.662C50.6617 20.662 50.0084 20.5383 49.4204 20.291C48.8324 20.039 48.3307 19.689 47.9154 19.241C47.5001 18.7883 47.1781 18.247 46.9494 17.617C46.7207 16.987 46.6064 16.294 46.6064 15.538C46.6064 14.782 46.7254 14.089 46.9634 13.459C47.2014 12.829 47.5351 12.2877 47.9644 11.835C48.3984 11.3823 48.9164 11.0323 49.5184 10.785C50.1204 10.533 50.7854 10.407 51.5134 10.407C52.2274 10.407 52.8574 10.5213 53.4034 10.75C53.9494 10.9787 54.4301 11.289 54.8454 11.681L54.3974 12.304C54.3694 12.3507 54.3321 12.3903 54.2854 12.423C54.2434 12.451 54.1851 12.465 54.1104 12.465C54.0264 12.465 53.9237 12.4207 53.8024 12.332C53.6811 12.2387 53.5224 12.136 53.3264 12.024C53.1304 11.912 52.8854 11.8117 52.5914 11.723C52.2974 11.6297 51.9357 11.583 51.5064 11.583C50.9884 11.583 50.5147 11.674 50.0854 11.856C49.6561 12.0333 49.2851 12.2923 48.9724 12.633C48.6644 12.9737 48.4241 13.389 48.2514 13.879C48.0787 14.369 47.9924 14.922 47.9924 15.538C47.9924 16.1633 48.0811 16.721 48.2584 17.211C48.4404 17.701 48.6854 18.1163 48.9934 18.457C49.3061 18.793 49.6724 19.0497 50.0924 19.227C50.5171 19.4043 50.9744 19.493 51.4644 19.493C51.7631 19.493 52.0314 19.4767 52.2694 19.444C52.5121 19.4067 52.7337 19.3507 52.9344 19.276C53.1397 19.2013 53.3287 19.108 53.5014 18.996C53.6787 18.8793 53.8537 18.7417 54.0264 18.583C54.1057 18.513 54.1851 18.478 54.2644 18.478ZM57.568 10.239V20.55H56.322V10.239H57.568ZM62.5776 13.347C63.0956 13.347 63.5622 13.4333 63.9776 13.606C64.3929 13.7787 64.7476 14.0237 65.0416 14.341C65.3356 14.6583 65.5596 15.0433 65.7136 15.496C65.8722 15.944 65.9516 16.4457 65.9516 17.001C65.9516 17.561 65.8722 18.065 65.7136 18.513C65.5596 18.961 65.3356 19.3437 65.0416 19.661C64.7476 19.9783 64.3929 20.2233 63.9776 20.396C63.5622 20.564 63.0956 20.648 62.5776 20.648C62.0549 20.648 61.5836 20.564 61.1636 20.396C60.7482 20.2233 60.3936 19.9783 60.0996 19.661C59.8056 19.3437 59.5792 18.961 59.4206 18.513C59.2666 18.065 59.1896 17.561 59.1896 17.001C59.1896 16.4457 59.2666 15.944 59.4206 15.496C59.5792 15.0433 59.8056 14.6583 60.0996 14.341C60.3936 14.0237 60.7482 13.7787 61.1636 13.606C61.5836 13.4333 62.0549 13.347 62.5776 13.347ZM62.5776 19.675C63.2776 19.675 63.8002 19.4417 64.1456 18.975C64.4909 18.5037 64.6636 17.848 64.6636 17.008C64.6636 16.1633 64.4909 15.5053 64.1456 15.034C63.8002 14.5627 63.2776 14.327 62.5776 14.327C62.2229 14.327 61.9126 14.3877 61.6466 14.509C61.3852 14.6303 61.1659 14.8053 60.9886 15.034C60.8159 15.2627 60.6852 15.545 60.5966 15.881C60.5126 16.2123 60.4706 16.588 60.4706 17.008C60.4706 17.848 60.6432 18.5037 60.9886 18.975C61.3386 19.4417 61.8682 19.675 62.5776 19.675ZM69.5859 20.662C69.0259 20.662 68.5942 20.5057 68.2909 20.193C67.9922 19.8803 67.8429 19.43 67.8429 18.842V14.502H66.9889C66.9142 14.502 66.8512 14.481 66.7999 14.439C66.7485 14.3923 66.7229 14.3223 66.7229 14.229V13.732L67.8849 13.585L68.1719 11.394C68.1859 11.324 68.2162 11.268 68.2629 11.226C68.3142 11.1793 68.3795 11.156 68.4589 11.156H69.0889V13.599H71.1399V14.502H69.0889V18.758C69.0889 19.0567 69.1612 19.2783 69.3059 19.423C69.4505 19.5677 69.6372 19.64 69.8659 19.64C69.9965 19.64 70.1085 19.6237 70.2019 19.591C70.2999 19.5537 70.3839 19.514 70.4539 19.472C70.5239 19.43 70.5822 19.3927 70.6289 19.36C70.6802 19.3227 70.7245 19.304 70.7619 19.304C70.8272 19.304 70.8855 19.3437 70.9369 19.423L71.3009 20.018C71.0862 20.2187 70.8272 20.3773 70.5239 20.494C70.2205 20.606 69.9079 20.662 69.5859 20.662ZM73.6795 14.404C73.9828 14.082 74.3188 13.8253 74.6875 13.634C75.0561 13.4427 75.4808 13.347 75.9615 13.347C76.3488 13.347 76.6895 13.4123 76.9835 13.543C77.2821 13.669 77.5295 13.851 77.7255 14.089C77.9261 14.3223 78.0778 14.6047 78.1805 14.936C78.2831 15.2673 78.3345 15.6337 78.3345 16.035V20.55H77.0815V16.035C77.0815 15.4983 76.9578 15.083 76.7105 14.789C76.4678 14.4903 76.0968 14.341 75.5975 14.341C75.2288 14.341 74.8835 14.4297 74.5615 14.607C74.2441 14.7843 73.9501 15.0247 73.6795 15.328V20.55H72.4265V10.239H73.6795V14.404ZM81.5491 13.459V20.55H80.3031V13.459H81.5491ZM81.8151 11.233C81.8151 11.3543 81.7894 11.4687 81.7381 11.576C81.6914 11.6787 81.6261 11.772 81.5421 11.856C81.4628 11.9353 81.3671 11.9983 81.2551 12.045C81.1478 12.0917 81.0334 12.115 80.9121 12.115C80.7908 12.115 80.6764 12.0917 80.5691 12.045C80.4664 11.9983 80.3754 11.9353 80.2961 11.856C80.2168 11.772 80.1538 11.6787 80.1071 11.576C80.0604 11.4687 80.0371 11.3543 80.0371 11.233C80.0371 11.1117 80.0604 10.9973 80.1071 10.89C80.1538 10.778 80.2168 10.6823 80.2961 10.603C80.3754 10.519 80.4664 10.4537 80.5691 10.407C80.6764 10.3603 80.7908 10.337 80.9121 10.337C81.0334 10.337 81.1478 10.3603 81.2551 10.407C81.3671 10.4537 81.4628 10.519 81.5421 10.603C81.6261 10.6823 81.6914 10.778 81.7381 10.89C81.7894 10.9973 81.8151 11.1117 81.8151 11.233ZM84.7724 14.488C84.9264 14.3153 85.0897 14.159 85.2624 14.019C85.435 13.879 85.617 13.76 85.8084 13.662C86.0044 13.5593 86.2097 13.4823 86.4244 13.431C86.6437 13.375 86.8794 13.347 87.1314 13.347C87.5187 13.347 87.8594 13.4123 88.1534 13.543C88.452 13.669 88.6994 13.851 88.8954 14.089C89.096 14.3223 89.2477 14.6047 89.3504 14.936C89.453 15.2673 89.5044 15.6337 89.5044 16.035V20.55H88.2514V16.035C88.2514 15.4983 88.1277 15.083 87.8804 14.789C87.6377 14.4903 87.2667 14.341 86.7674 14.341C86.3987 14.341 86.0534 14.4297 85.7314 14.607C85.414 14.7843 85.12 15.0247 84.8494 15.328V20.55H83.5964V13.459H84.3454C84.5227 13.459 84.6324 13.5453 84.6744 13.718L84.7724 14.488ZM93.874 17.085C94.126 17.085 94.3477 17.05 94.539 16.98C94.7303 16.91 94.8913 16.812 95.022 16.686C95.1527 16.56 95.2507 16.4107 95.316 16.238C95.3813 16.0607 95.414 15.867 95.414 15.657C95.414 15.223 95.281 14.8777 95.015 14.621C94.7537 14.3643 94.3733 14.236 93.874 14.236C93.37 14.236 92.985 14.3643 92.719 14.621C92.4577 14.8777 92.327 15.223 92.327 15.657C92.327 15.867 92.3597 16.0607 92.425 16.238C92.495 16.4107 92.5953 16.56 92.726 16.686C92.8567 16.812 93.0177 16.91 93.209 16.98C93.4003 17.05 93.622 17.085 93.874 17.085ZM96.121 20.935C96.121 20.7623 96.072 20.6223 95.974 20.515C95.876 20.4077 95.743 20.3237 95.575 20.263C95.4117 20.2023 95.2203 20.1603 95.001 20.137C94.7817 20.109 94.5483 20.088 94.301 20.074C94.0583 20.06 93.811 20.046 93.559 20.032C93.307 20.018 93.0643 19.9947 92.831 19.962C92.5697 20.0833 92.355 20.2373 92.187 20.424C92.0237 20.606 91.942 20.8207 91.942 21.068C91.942 21.2267 91.9817 21.3737 92.061 21.509C92.145 21.649 92.271 21.768 92.439 21.866C92.607 21.9687 92.817 22.048 93.069 22.104C93.3257 22.1647 93.6267 22.195 93.972 22.195C94.308 22.195 94.609 22.1647 94.875 22.104C95.141 22.0433 95.365 21.957 95.547 21.845C95.7337 21.733 95.876 21.6 95.974 21.446C96.072 21.292 96.121 21.1217 96.121 20.935ZM97.388 13.739V14.201C97.388 14.355 97.29 14.453 97.094 14.495L96.289 14.6C96.4477 14.908 96.527 15.2487 96.527 15.622C96.527 15.9673 96.4593 16.2823 96.324 16.567C96.1933 16.847 96.0113 17.0873 95.778 17.288C95.5447 17.4887 95.2647 17.6427 94.938 17.75C94.6113 17.8573 94.2567 17.911 93.874 17.911C93.5427 17.911 93.23 17.8713 92.936 17.792C92.7867 17.8853 92.6723 17.9857 92.593 18.093C92.5137 18.1957 92.474 18.3007 92.474 18.408C92.474 18.576 92.5417 18.7043 92.677 18.793C92.817 18.877 92.999 18.9377 93.223 18.975C93.447 19.0123 93.7013 19.0357 93.986 19.045C94.2753 19.0543 94.5693 19.0707 94.868 19.094C95.1713 19.1127 95.4653 19.1477 95.75 19.199C96.0393 19.2503 96.296 19.3343 96.52 19.451C96.744 19.5677 96.9237 19.7287 97.059 19.934C97.199 20.1393 97.269 20.4053 97.269 20.732C97.269 21.0353 97.192 21.3293 97.038 21.614C96.8887 21.8987 96.6717 22.1507 96.387 22.37C96.1023 22.594 95.7523 22.7713 95.337 22.902C94.9263 23.0373 94.462 23.105 93.944 23.105C93.426 23.105 92.9733 23.0537 92.586 22.951C92.1987 22.8483 91.8767 22.7107 91.62 22.538C91.3633 22.3653 91.1697 22.1647 91.039 21.936C90.913 21.712 90.85 21.4763 90.85 21.229C90.85 20.879 90.9597 20.5827 91.179 20.34C91.3983 20.0973 91.6993 19.9037 92.082 19.759C91.872 19.6657 91.704 19.542 91.578 19.388C91.4567 19.2293 91.396 19.017 91.396 18.751C91.396 18.6483 91.4147 18.5433 91.452 18.436C91.4893 18.324 91.5453 18.2143 91.62 18.107C91.6993 17.995 91.795 17.89 91.907 17.792C92.019 17.694 92.1497 17.6077 92.299 17.533C91.949 17.337 91.676 17.078 91.48 16.756C91.284 16.4293 91.186 16.0513 91.186 15.622C91.186 15.2767 91.2513 14.964 91.382 14.684C91.5173 14.3993 91.704 14.159 91.942 13.963C92.18 13.7623 92.4623 13.6083 92.789 13.501C93.1203 13.3937 93.482 13.34 93.874 13.34C94.182 13.34 94.469 13.375 94.735 13.445C95.001 13.5103 95.2437 13.6083 95.463 13.739H97.388Z" fill="#253D4E"/>
<defs>
<clipPath id="clip0_6511_7421">
<rect width="30" height="30" fill="white" transform="translate(0.941406 0.0499878)"/>
</clipPath>
<clipPath id="clip1_6511_7421">
<rect width="30" height="30" fill="white" transform="translate(0.941406 0.0499878)"/>
</clipPath>
<clipPath id="clip2_6511_7421">
<rect width="30" height="30" fill="white" transform="translate(0.941406 0.0499878)"/>
</clipPath>
</defs>
</svg>
