<svg width="113" height="31" viewBox="0 0 113 31" fill="none" xmlns="http://www.w3.org/2000/svg">
<g clip-path="url(#clip0_6511_7470)">
<g clip-path="url(#clip1_6511_7470)">
<g clip-path="url(#clip2_6511_7470)">
<path d="M23.0664 20.3H16.3164C15.0738 20.3 14.0664 21.3074 14.0664 22.55V27.05C14.0664 28.2927 15.0738 29.3 16.3164 29.3H23.0664C24.309 29.3 25.3164 28.2927 25.3164 27.05V22.55C25.3164 21.3074 24.309 20.3 23.0664 20.3Z" fill="#FDC040"/>
<path d="M3.19141 2.86255L3.56641 3.80005L4.69141 3.42505L6.94141 3.23755L10.5039 3.05005L14.2539 3.23755L20.6289 3.80005L21.1914 3.23755L21.5664 2.30005C21.6289 2.05005 21.7539 1.51255 21.7539 1.36255C21.7539 1.21255 21.2539 1.17505 21.0039 1.17505L20.4414 1.36255L19.8789 1.55005H18.7539C18.5664 1.36255 18.1539 0.987549 18.0039 0.987549C17.8539 0.987549 17.5664 0.737548 17.4414 0.612549H16.5039L15.9414 1.17505L15.1914 1.55005H14.4414L13.5039 0.987549L12.5664 0.425049L11.6289 0.612549L11.0664 1.17505L10.1289 1.55005L9.19141 1.36255C9.00391 1.30005 8.59141 1.17505 8.44141 1.17505C8.29141 1.17505 8.12892 0.800049 8.06641 0.612549H7.50391L6.75391 0.800049C6.62892 0.925048 6.34141 1.17505 6.19141 1.17505C6.00391 1.17505 5.62891 1.36255 5.62891 1.55005C5.62891 1.73755 5.06641 1.55005 4.87891 1.55005C4.69141 1.55005 4.50391 1.55005 4.31641 1.36255C4.16641 1.21255 3.87891 1.17505 3.75391 1.17505H3.00391L2.81641 1.92505L3.19141 2.86255Z" fill="#FDC040"/>
<path d="M12.2415 19.3125C14.2297 19.3125 16.1037 18.7315 17.5185 17.6763C18.9718 16.5923 19.7722 15.139 19.7722 13.5842C19.7722 12.0293 18.9718 10.576 17.5185 9.49211C16.1037 8.43694 14.2297 7.85583 12.2415 7.85583C10.2534 7.85583 8.37937 8.43694 6.96461 9.49211C5.51134 10.576 4.71094 12.0293 4.71094 13.5842C4.71094 15.139 5.5113 16.5923 6.96461 17.6763C8.37937 18.7315 10.2534 19.3125 12.2415 19.3125ZM5.58986 13.5842C5.58986 10.9102 8.57381 8.73476 12.2415 8.73476C15.9093 8.73476 18.8932 10.9102 18.8932 13.5842C18.8932 16.2582 15.9093 18.4336 12.2415 18.4336C8.57381 18.4336 5.58986 16.2582 5.58986 13.5842Z" fill="#3BB77E"/>
<path d="M28.7618 25.8149C29.1278 25.5308 29.3269 25.1803 29.3269 24.7971C29.3269 24.414 29.1278 24.0635 28.7618 23.7794C29.0821 23.5573 29.2996 23.3004 29.4112 23.011C29.5085 22.7588 29.5706 22.3525 29.3134 21.8491C29.1129 21.4569 28.7955 21.2024 28.3952 21.1131C27.754 20.97 26.905 21.2588 25.8667 21.9713C25.3763 20.6358 24.1272 19.6796 22.6303 19.6118C22.3163 19.5976 22.0015 19.5865 21.6863 19.5767C21.9891 14.3457 21.893 9.04607 21.3996 3.81291C21.562 3.55127 21.8728 2.972 22.0679 2.10855C22.1854 1.58881 21.9642 1.07757 21.5046 0.806098C21.0519 0.538846 20.5062 0.590998 20.1144 0.93905C19.9177 1.11378 19.7318 1.22206 19.4134 1.22206C18.9952 1.22206 18.8085 1.03895 18.5258 0.761803C18.2024 0.444628 17.8 0.0500488 17.0229 0.0500488C16.2458 0.0500488 15.8434 0.444628 15.5201 0.761683C15.2374 1.03884 15.0507 1.22195 14.6326 1.22195C14.2145 1.22195 14.0278 1.03884 13.7452 0.761683C13.4218 0.444628 13.0193 0.0500488 12.2422 0.0500488C11.4652 0.0500488 11.0628 0.444628 10.7395 0.761683C10.4569 1.03884 10.2701 1.22195 9.85202 1.22195C9.43397 1.22195 9.24729 1.03884 8.96454 0.761683C8.64129 0.444628 8.23892 0.0500488 7.46184 0.0500488C6.6848 0.0500488 6.2825 0.444628 5.95922 0.761683C5.67654 1.03884 5.48987 1.22195 5.07193 1.22195C4.75363 1.22195 4.56777 1.11367 4.37113 0.938994C3.97948 0.590998 3.43396 0.53879 2.9812 0.805921C2.52152 1.07728 2.30038 1.58846 2.41781 2.1082C2.61293 2.972 2.92389 3.55139 3.08632 3.81295C3.01032 4.61871 2.94211 5.44041 2.88428 6.26035C2.86717 6.50245 3.04958 6.7126 3.29169 6.72962C3.53492 6.7465 3.74393 6.56429 3.76103 6.32215C3.81488 5.55891 3.87734 4.7935 3.94725 4.04166C9.45365 3.37865 15.0324 3.37865 20.5391 4.04166C21.0174 9.19307 21.1067 14.4078 20.8072 19.5555C19.418 19.5311 18.0237 19.5491 16.6427 19.6117C15.1457 19.6796 13.8966 20.6357 13.4062 21.9712C12.368 21.2587 11.5189 20.9698 10.8777 21.113C10.4775 21.2023 10.16 21.4568 9.95957 21.8491C9.70239 22.3524 9.76442 22.7587 9.86169 23.0109C9.94389 23.224 10.084 23.4193 10.2797 23.5963C8.17685 23.5369 6.05147 23.3799 3.94725 23.1263C3.48289 18.1257 3.38368 13.0616 3.65252 8.06924C3.66558 7.82687 3.47966 7.6198 3.23731 7.60679C2.9935 7.59344 2.78795 7.77966 2.77483 8.02199C2.50013 13.1229 2.60701 18.2973 3.09112 23.4047C2.92998 23.6626 2.6148 24.2447 2.41798 25.1164C2.30032 25.6363 2.52146 26.1477 2.98131 26.4192C3.4339 26.6865 3.97965 26.6341 4.37113 26.2863C4.56806 26.1115 4.75404 26.0032 5.07204 26.0032C5.49024 26.0032 5.67703 26.1863 5.95974 26.4636C6.28314 26.7806 6.68555 27.1751 7.46267 27.1751C8.23985 27.1751 8.64227 26.7806 8.96567 26.4636C9.24834 26.1863 9.4352 26.0032 9.85333 26.0032C9.99508 26.0032 10.1104 26.0248 10.2111 26.0632C10.051 26.2226 9.93377 26.3961 9.86154 26.5833C9.76427 26.8356 9.7022 27.2419 9.95938 27.7453C10.1598 28.1374 10.4773 28.3919 10.8776 28.4813C10.9841 28.5051 11.0963 28.5169 11.2142 28.5169C11.806 28.5169 12.5404 28.2166 13.4059 27.6226C13.8961 28.9584 15.1454 29.9147 16.6425 29.9825C17.6359 30.0275 18.6361 30.05 19.6364 30.05C20.6366 30.05 21.637 30.0275 22.6302 29.9825C24.1273 29.9146 25.3765 28.9584 25.8667 27.6226C26.7322 28.2166 27.4666 28.5169 28.0583 28.5169C28.1762 28.5169 28.2886 28.505 28.395 28.4812C28.7953 28.3919 29.1128 28.1374 29.3132 27.7451C29.5704 27.2418 29.5083 26.8356 29.411 26.5833C29.2996 26.2939 29.0821 26.0369 28.7618 25.8149ZM3.73701 3.18236C3.60183 2.9318 3.40835 2.5043 3.27511 1.91454C3.22677 1.70049 3.37999 1.59115 3.42804 1.5628C3.48611 1.52852 3.63752 1.46295 3.78746 1.59613C4.05202 1.8311 4.4371 2.10087 5.07193 2.10087C5.84893 2.10087 6.25127 1.70629 6.57459 1.38923C6.85719 1.11208 7.04394 0.928974 7.46188 0.928974C7.87989 0.928974 8.0666 1.11208 8.34932 1.38923C8.67253 1.70629 9.07494 2.10087 9.85202 2.10087C10.6291 2.10087 11.0315 1.70629 11.3548 1.38923C11.6375 1.11208 11.8242 0.928974 12.2422 0.928974C12.6603 0.928974 12.8471 1.11208 13.1297 1.38923C13.4531 1.70629 13.8555 2.10087 14.6326 2.10087C15.4097 2.10087 15.8121 1.70629 16.1354 1.38923C16.418 1.11208 16.6048 0.928974 17.0229 0.928974C17.4411 0.928974 17.6278 1.11208 17.9105 1.38923C18.2339 1.70629 18.6364 2.10087 19.4135 2.10087C20.0483 2.10087 20.4335 1.83116 20.6981 1.59613C20.8479 1.46301 20.9996 1.52846 21.0577 1.56285C21.1058 1.59127 21.2591 1.70061 21.2107 1.91471C21.0774 2.50465 20.8838 2.93222 20.749 3.1823C15.103 2.49392 9.38244 2.49392 3.73701 3.18236ZM22.1045 29.1237C21.5128 29.146 20.9192 29.161 20.3249 29.1672C20.5876 27.2394 21.0752 25.2932 21.7779 23.3745C21.8614 23.1466 21.7443 22.8942 21.5164 22.8107C21.2884 22.7273 21.0361 22.8444 20.9525 23.0723C20.2135 25.0905 19.7045 27.1399 19.4374 29.17C18.8466 29.1681 18.2563 29.1583 17.6673 29.1406C18.2629 24.809 19.8517 21.479 20.4004 20.4277C20.9533 20.4341 21.5056 20.4482 22.0562 20.4685C21.9292 20.7281 21.7795 21.0465 21.6173 21.417C21.52 21.6393 21.6212 21.8985 21.8436 21.9958C21.901 22.021 21.9607 22.0328 22.0196 22.0328C22.1889 22.0328 22.3502 21.9345 22.4224 21.7695C22.654 21.2407 22.8579 20.8236 23.0034 20.5396C23.5239 20.6418 23.9896 20.8888 24.3578 21.2374C23.6597 22.8003 22.5673 25.6644 22.1045 29.1237ZM8.35048 25.8358C8.06777 26.113 7.8809 26.2962 7.46278 26.2962C7.04462 26.2962 6.85783 26.1131 6.57515 25.8359C6.25172 25.5188 5.8493 25.1243 5.07215 25.1243C4.43792 25.1243 4.05272 25.3939 3.78764 25.629C3.63775 25.7621 3.48634 25.6967 3.42833 25.6624C3.38017 25.6339 3.22688 25.5245 3.2754 25.3101C3.41861 24.6758 3.63183 24.2288 3.76695 23.9886C5.83648 24.2402 7.92688 24.4018 9.99759 24.4681C9.96388 24.5744 9.94614 24.6843 9.94614 24.7972C9.94614 24.9112 9.96418 25.0223 9.99864 25.1297C9.95158 25.1265 9.90354 25.1243 9.85355 25.1243C9.07629 25.1243 8.67388 25.5188 8.35048 25.8358ZM11.0692 27.6235C10.9721 27.6018 10.8472 27.5506 10.7423 27.3453C10.6236 27.113 10.6508 26.9797 10.6818 26.8996C10.7728 26.6638 11.1047 26.4271 11.6163 26.2332C11.7887 26.1679 11.902 26.002 11.9001 25.8176C11.8982 25.6333 11.7814 25.4698 11.6077 25.4081C11.0699 25.2172 10.8251 24.9576 10.8251 24.7971C10.8251 24.6366 11.07 24.3769 11.6077 24.1861C11.7814 24.1244 11.8982 23.9609 11.9001 23.7765C11.902 23.5922 11.7887 23.4262 11.6163 23.361C11.1047 23.1671 10.7728 22.9305 10.6818 22.6946C10.6509 22.6145 10.6236 22.4812 10.7423 22.249C10.8472 22.0436 10.9721 21.9924 11.0692 21.9707C11.2762 21.9245 11.8874 21.9305 13.1982 22.9024C13.1943 22.9465 13.1904 22.9905 13.1881 23.0351C13.1264 24.2042 13.1264 25.3898 13.1881 26.5589C13.1904 26.6035 13.1943 26.6476 13.1982 26.6916C11.8876 27.6635 11.2765 27.6696 11.0692 27.6235ZM14.0657 23.0815C14.1403 21.6682 15.2653 20.554 16.6825 20.4898C16.697 20.4892 16.7116 20.4888 16.7261 20.4881C16.1231 21.7272 14.9972 24.3325 14.3656 27.626C14.1927 27.2904 14.0869 26.9137 14.0657 26.5129C14.0057 25.3744 14.0057 24.2199 14.0657 23.0815ZM15.1 28.5167C15.7517 24.5112 17.2196 21.4313 17.7273 20.4519C18.2896 20.4355 18.8532 20.4262 19.4171 20.4244C18.7235 21.8343 17.3286 25.0566 16.7848 29.1085C16.7507 29.1071 16.7165 29.106 16.6825 29.1045C16.0836 29.0774 15.5373 28.8622 15.1 28.5167ZM25.2072 26.5128C25.1401 27.7863 24.2198 28.8166 23.0015 29.0549C23.4183 26.1056 24.2993 23.6174 24.9554 22.067C25.0997 22.3772 25.1881 22.7194 25.2072 23.0814C25.2672 24.2199 25.2672 25.3744 25.2072 26.5128ZM28.5307 27.3452C28.4258 27.5506 28.3009 27.6018 28.2038 27.6235C27.9967 27.6696 27.3855 27.6636 26.0748 26.6918C26.0787 26.6477 26.0826 26.6036 26.0849 26.5591C26.1466 25.3899 26.1466 24.2043 26.0849 23.0352C26.0826 22.9906 26.0787 22.9466 26.0748 22.9025C27.3854 21.9307 27.9965 21.9246 28.2038 21.9709C28.3009 21.9925 28.4258 22.0438 28.5307 22.249C28.6494 22.4813 28.6221 22.6146 28.5911 22.6946C28.5002 22.9305 28.1683 23.1671 27.6566 23.361C27.4843 23.4263 27.371 23.5922 27.3728 23.7766C27.3748 23.9609 27.4916 24.1244 27.6653 24.1861C28.2031 24.377 28.4479 24.6367 28.4479 24.7971C28.4479 24.9576 28.203 25.2173 27.6653 25.4081C27.4916 25.4698 27.3748 25.6333 27.3728 25.8177C27.3709 26.002 27.4842 26.168 27.6566 26.2333C28.1683 26.4271 28.5002 26.6638 28.5912 26.8997C28.622 26.9797 28.6494 27.113 28.5307 27.3452Z" fill="#3BB77E"/>
<path d="M9.30207 12.1337C11.2533 11.8746 13.2317 11.8746 15.1827 12.1337C15.2024 12.1363 15.2219 12.1376 15.2412 12.1376C15.4581 12.1376 15.6469 11.977 15.6762 11.756C15.7082 11.5154 15.5391 11.2945 15.2985 11.2625C13.2708 10.9932 11.2143 10.9932 9.18634 11.2625C8.94574 11.2945 8.77658 11.5154 8.80857 11.756C8.84056 11.9966 9.06147 12.1656 9.30207 12.1337Z" fill="#3BB77E"/>
<path d="M15.6762 15.5269C15.6443 15.2863 15.4232 15.1173 15.1827 15.1491C13.2317 15.4083 11.2533 15.4083 9.30207 15.1491C9.06158 15.1172 8.84052 15.2863 8.80857 15.5269C8.77658 15.7675 8.94574 15.9884 9.18634 16.0204C10.2003 16.155 11.2213 16.2224 12.2424 16.2224C13.2635 16.2224 14.2845 16.155 15.2984 16.0204C15.5391 15.9884 15.7082 15.7675 15.6762 15.5269Z" fill="#3BB77E"/>
<path d="M16.8658 13.6414C16.8658 13.3987 16.669 13.2019 16.4263 13.2019H8.05665C7.81391 13.2019 7.61719 13.3987 7.61719 13.6414C7.61719 13.8841 7.81391 14.0808 8.05665 14.0808H16.4263C16.669 14.0808 16.8658 13.8841 16.8658 13.6414Z" fill="#3BB77E"/>
</g>
</g>
</g>
<path d="M48.5804 11.625V15.132H52.7034V16.238H48.5804V20.55H47.2224V10.519H53.4034V11.625H48.5804ZM55.4259 14.88C55.6499 14.3947 55.9252 14.0167 56.2519 13.746C56.5785 13.4707 56.9775 13.333 57.4489 13.333C57.5982 13.333 57.7405 13.3494 57.8759 13.382C58.0159 13.4147 58.1395 13.466 58.2469 13.536L58.1559 14.467C58.1279 14.5837 58.0579 14.642 57.9459 14.642C57.8805 14.642 57.7849 14.628 57.6589 14.6C57.5329 14.572 57.3905 14.558 57.2319 14.558C57.0079 14.558 56.8072 14.5907 56.6299 14.656C56.4572 14.7214 56.3009 14.8194 56.1609 14.95C56.0255 15.076 55.9019 15.2347 55.7899 15.426C55.6825 15.6127 55.5845 15.8274 55.4959 16.07V20.55H54.2429V13.459H54.9569C55.0922 13.459 55.1855 13.4847 55.2369 13.536C55.2882 13.5874 55.3232 13.676 55.3419 13.802L55.4259 14.88ZM63.8014 16.231C63.8014 15.9417 63.7594 15.678 63.6754 15.44C63.596 15.1974 63.477 14.9897 63.3184 14.817C63.1644 14.6397 62.9754 14.5044 62.7514 14.411C62.5274 14.313 62.273 14.264 61.9884 14.264C61.391 14.264 60.9174 14.439 60.5674 14.789C60.222 15.1344 60.0074 15.615 59.9234 16.231H63.8014ZM64.8094 19.556C64.6554 19.7427 64.471 19.906 64.2564 20.046C64.0417 20.1814 63.8107 20.2934 63.5634 20.382C63.3207 20.4707 63.0687 20.536 62.8074 20.578C62.546 20.6247 62.287 20.648 62.0304 20.648C61.5404 20.648 61.0877 20.5664 60.6724 20.403C60.2617 20.235 59.9047 19.9924 59.6014 19.675C59.3027 19.353 59.0694 18.9564 58.9014 18.485C58.7334 18.0137 58.6494 17.4724 58.6494 16.861C58.6494 16.3664 58.724 15.9044 58.8734 15.475C59.0274 15.0457 59.2467 14.6747 59.5314 14.362C59.816 14.0447 60.1637 13.7974 60.5744 13.62C60.985 13.438 61.447 13.347 61.9604 13.347C62.385 13.347 62.777 13.4194 63.1364 13.564C63.5004 13.704 63.813 13.9094 64.0744 14.18C64.3404 14.446 64.548 14.7774 64.6974 15.174C64.8467 15.566 64.9214 16.014 64.9214 16.518C64.9214 16.714 64.9004 16.8447 64.8584 16.91C64.8164 16.9754 64.737 17.008 64.6204 17.008H59.8814C59.8954 17.456 59.956 17.8457 60.0634 18.177C60.1754 18.5084 60.3294 18.786 60.5254 19.01C60.7214 19.2294 60.9547 19.395 61.2254 19.507C61.496 19.6144 61.7994 19.668 62.1354 19.668C62.448 19.668 62.7164 19.633 62.9404 19.563C63.169 19.4884 63.365 19.409 63.5284 19.325C63.6917 19.241 63.827 19.164 63.9344 19.094C64.0464 19.0194 64.142 18.982 64.2214 18.982C64.324 18.982 64.4034 19.0217 64.4594 19.101L64.8094 19.556ZM70.5818 14.628C70.5258 14.7307 70.4395 14.782 70.3228 14.782C70.2528 14.782 70.1735 14.7564 70.0848 14.705C69.9962 14.6537 69.8865 14.5977 69.7558 14.537C69.6298 14.4717 69.4782 14.4134 69.3008 14.362C69.1235 14.306 68.9135 14.278 68.6708 14.278C68.4608 14.278 68.2718 14.306 68.1038 14.362C67.9358 14.4134 67.7912 14.4857 67.6698 14.579C67.5532 14.6724 67.4622 14.782 67.3968 14.908C67.3362 15.0294 67.3058 15.1624 67.3058 15.307C67.3058 15.489 67.3572 15.6407 67.4598 15.762C67.5672 15.8834 67.7072 15.9884 67.8798 16.077C68.0525 16.1657 68.2485 16.245 68.4678 16.315C68.6872 16.3804 68.9112 16.4527 69.1398 16.532C69.3732 16.6067 69.5995 16.6907 69.8188 16.784C70.0382 16.8774 70.2342 16.994 70.4068 17.134C70.5795 17.274 70.7172 17.4467 70.8198 17.652C70.9272 17.8527 70.9808 18.0954 70.9808 18.38C70.9808 18.7067 70.9225 19.01 70.8058 19.29C70.6892 19.5654 70.5165 19.8057 70.2878 20.011C70.0592 20.2117 69.7792 20.3704 69.4478 20.487C69.1165 20.6037 68.7338 20.662 68.2998 20.662C67.8052 20.662 67.3572 20.5827 66.9558 20.424C66.5545 20.2607 66.2138 20.053 65.9338 19.801L66.2278 19.325C66.2652 19.2644 66.3095 19.2177 66.3608 19.185C66.4122 19.1524 66.4775 19.136 66.5568 19.136C66.6408 19.136 66.7295 19.1687 66.8228 19.234C66.9162 19.2994 67.0282 19.3717 67.1588 19.451C67.2942 19.5304 67.4575 19.6027 67.6488 19.668C67.8402 19.7334 68.0782 19.766 68.3628 19.766C68.6055 19.766 68.8178 19.7357 68.9998 19.675C69.1818 19.6097 69.3335 19.5234 69.4548 19.416C69.5762 19.3087 69.6648 19.185 69.7208 19.045C69.7815 18.905 69.8118 18.7557 69.8118 18.597C69.8118 18.401 69.7582 18.24 69.6508 18.114C69.5482 17.9834 69.4105 17.8737 69.2378 17.785C69.0652 17.6917 68.8668 17.6124 68.6428 17.547C68.4235 17.477 68.1972 17.4047 67.9638 17.33C67.7352 17.2554 67.5088 17.1714 67.2848 17.078C67.0655 16.98 66.8695 16.8587 66.6968 16.714C66.5242 16.5694 66.3842 16.392 66.2768 16.182C66.1742 15.9674 66.1228 15.7084 66.1228 15.405C66.1228 15.1344 66.1788 14.8754 66.2908 14.628C66.4028 14.376 66.5662 14.1567 66.7808 13.97C66.9955 13.7787 67.2592 13.627 67.5718 13.515C67.8845 13.403 68.2415 13.347 68.6428 13.347C69.1095 13.347 69.5272 13.4217 69.8958 13.571C70.2692 13.7157 70.5912 13.9164 70.8618 14.173L70.5818 14.628ZM73.7615 14.404C74.0648 14.082 74.4008 13.8254 74.7695 13.634C75.1382 13.4427 75.5628 13.347 76.0435 13.347C76.4308 13.347 76.7715 13.4124 77.0655 13.543C77.3642 13.669 77.6115 13.851 77.8075 14.089C78.0082 14.3224 78.1598 14.6047 78.2625 14.936C78.3652 15.2674 78.4165 15.6337 78.4165 16.035V20.55H77.1635V16.035C77.1635 15.4984 77.0398 15.083 76.7925 14.789C76.5498 14.4904 76.1788 14.341 75.6795 14.341C75.3108 14.341 74.9655 14.4297 74.6435 14.607C74.3262 14.7844 74.0322 15.0247 73.7615 15.328V20.55H72.5085V10.239H73.7615V14.404ZM85.5492 11.625V15.132H89.6722V16.238H85.5492V20.55H84.1912V10.519H90.3722V11.625H85.5492ZM92.3946 14.88C92.6186 14.3947 92.8939 14.0167 93.2206 13.746C93.5473 13.4707 93.9463 13.333 94.4176 13.333C94.5669 13.333 94.7093 13.3494 94.8446 13.382C94.9846 13.4147 95.1083 13.466 95.2156 13.536L95.1246 14.467C95.0966 14.5837 95.0266 14.642 94.9146 14.642C94.8493 14.642 94.7536 14.628 94.6276 14.6C94.5016 14.572 94.3593 14.558 94.2006 14.558C93.9766 14.558 93.7759 14.5907 93.5986 14.656C93.4259 14.7214 93.2696 14.8194 93.1296 14.95C92.9943 15.076 92.8706 15.2347 92.7586 15.426C92.6513 15.6127 92.5533 15.8274 92.4646 16.07V20.55H91.2116V13.459H91.9256C92.0609 13.459 92.1543 13.4847 92.2056 13.536C92.2569 13.5874 92.2919 13.676 92.3106 13.802L92.3946 14.88ZM102.142 13.459V20.55H101.4C101.223 20.55 101.111 20.4637 101.064 20.291L100.966 19.528C100.658 19.8687 100.313 20.144 99.9302 20.354C99.5476 20.5594 99.1089 20.662 98.6142 20.662C98.2269 20.662 97.8839 20.599 97.5852 20.473C97.2912 20.3424 97.0439 20.1604 96.8432 19.927C96.6426 19.6937 96.4909 19.4114 96.3882 19.08C96.2902 18.7487 96.2412 18.3824 96.2412 17.981V13.459H97.4872V17.981C97.4872 18.5177 97.6086 18.933 97.8512 19.227C98.0986 19.521 98.4742 19.668 98.9782 19.668C99.3469 19.668 99.6899 19.5817 100.007 19.409C100.329 19.2317 100.626 18.989 100.896 18.681V13.459H102.142ZM105.434 13.459V20.55H104.188V13.459H105.434ZM105.7 11.233C105.7 11.3544 105.674 11.4687 105.623 11.576C105.576 11.6787 105.511 11.772 105.427 11.856C105.348 11.9354 105.252 11.9984 105.14 12.045C105.033 12.0917 104.918 12.115 104.797 12.115C104.676 12.115 104.561 12.0917 104.454 12.045C104.351 11.9984 104.26 11.9354 104.181 11.856C104.102 11.772 104.039 11.6787 103.992 11.576C103.945 11.4687 103.922 11.3544 103.922 11.233C103.922 11.1117 103.945 10.9974 103.992 10.89C104.039 10.778 104.102 10.6824 104.181 10.603C104.26 10.519 104.351 10.4537 104.454 10.407C104.561 10.3604 104.676 10.337 104.797 10.337C104.918 10.337 105.033 10.3604 105.14 10.407C105.252 10.4537 105.348 10.519 105.427 10.603C105.511 10.6824 105.576 10.778 105.623 10.89C105.674 10.9974 105.7 11.1117 105.7 11.233ZM109.658 20.662C109.098 20.662 108.666 20.5057 108.363 20.193C108.064 19.8804 107.915 19.43 107.915 18.842V14.502H107.061C106.986 14.502 106.923 14.481 106.872 14.439C106.821 14.3924 106.795 14.3224 106.795 14.229V13.732L107.957 13.585L108.244 11.394C108.258 11.324 108.288 11.268 108.335 11.226C108.386 11.1794 108.452 11.156 108.531 11.156H109.161V13.599H111.212V14.502H109.161V18.758C109.161 19.0567 109.233 19.2784 109.378 19.423C109.523 19.5677 109.709 19.64 109.938 19.64C110.069 19.64 110.181 19.6237 110.274 19.591C110.372 19.5537 110.456 19.514 110.526 19.472C110.596 19.43 110.654 19.3927 110.701 19.36C110.752 19.3227 110.797 19.304 110.834 19.304C110.899 19.304 110.958 19.3437 111.009 19.423L111.373 20.018C111.158 20.2187 110.899 20.3774 110.596 20.494C110.293 20.606 109.98 20.662 109.658 20.662Z" fill="#253D4E"/>
<defs>
<clipPath id="clip0_6511_7470">
<rect width="30" height="30" fill="white" transform="translate(0.941406 0.0500488)"/>
</clipPath>
<clipPath id="clip1_6511_7470">
<rect width="30" height="30" fill="white" transform="translate(0.941406 0.0500488)"/>
</clipPath>
<clipPath id="clip2_6511_7470">
<rect width="30" height="30" fill="white" transform="translate(0.941406 0.0500488)"/>
</clipPath>
</defs>
</svg>
