<svg width="142" height="31" viewBox="0 0 142 31" fill="none" xmlns="http://www.w3.org/2000/svg">
<g clip-path="url(#clip0_6511_7454)">
<g clip-path="url(#clip1_6511_7454)">
<g clip-path="url(#clip2_6511_7454)">
<path d="M11.8164 19.925C15.7514 19.925 18.9414 16.903 18.9414 13.175C18.9414 9.44713 15.7514 6.42505 11.8164 6.42505C7.88138 6.42505 4.69141 9.44713 4.69141 13.175C4.69141 16.903 7.88138 19.925 11.8164 19.925Z" fill="#FDC040"/>
<path d="M11.8994 20.4843C16.184 20.4843 19.6698 17.2599 19.6698 13.2965C19.6698 9.33308 16.184 6.10864 11.8994 6.10864C7.61471 6.10864 4.12891 9.33308 4.12891 13.2965C4.12891 17.2599 7.61471 20.4843 11.8994 20.4843ZM11.8994 6.98839C15.6989 6.98839 18.7901 9.81818 18.7901 13.2965C18.7901 16.7748 15.6989 19.6046 11.8994 19.6046C8.09981 19.6046 5.00865 16.7748 5.00865 13.2965C5.00865 9.81818 8.09981 6.98839 11.8994 6.98839Z" fill="#3BB77E"/>
<path d="M14.2812 12.1811C14.2812 12.8957 14.8626 13.4771 15.5772 13.4771C16.2917 13.4771 16.8731 12.8957 16.8731 12.1811C16.8731 11.4666 16.2917 10.8853 15.5772 10.8853C14.8626 10.8853 14.2812 11.4666 14.2812 12.1811ZM15.5771 11.765C15.8066 11.765 15.9932 11.9517 15.9932 12.1811C15.9932 12.4106 15.8066 12.5973 15.5771 12.5973C15.3476 12.5973 15.1609 12.4106 15.1609 12.1811C15.1609 11.9517 15.3477 11.765 15.5771 11.765Z" fill="#3BB77E"/>
<path d="M13.4795 11.3308C14.194 11.3308 14.7754 10.7495 14.7754 10.0349C14.7754 9.32038 14.194 8.73901 13.4795 8.73901C12.765 8.73901 12.1836 9.32038 12.1836 10.0349C12.1836 10.7495 12.765 11.3308 13.4795 11.3308ZM13.4795 9.61873C13.7089 9.61873 13.8956 9.80544 13.8956 10.0349C13.8956 10.2643 13.7089 10.451 13.4795 10.451C13.2501 10.451 13.0634 10.2643 13.0634 10.0349C13.0634 9.80544 13.2501 9.61873 13.4795 9.61873Z" fill="#3BB77E"/>
<path d="M8.22557 13.4771C8.94018 13.4771 9.52154 12.8957 9.52154 12.1811C9.52154 11.4666 8.94018 10.8853 8.22557 10.8853C7.51105 10.8853 6.92969 11.4666 6.92969 12.1811C6.92969 12.8957 7.51105 13.4771 8.22557 13.4771ZM8.22557 11.765C8.45508 11.765 8.64179 11.9517 8.64179 12.1811C8.64179 12.4106 8.45508 12.5973 8.22557 12.5973C7.99615 12.5973 7.80947 12.4106 7.80947 12.1811C7.80947 11.9517 7.99615 11.765 8.22557 11.765Z" fill="#3BB77E"/>
<path d="M10.3233 11.3308C11.0378 11.3308 11.6192 10.7495 11.6192 10.0349C11.6192 9.32038 11.0378 8.73901 10.3233 8.73901C9.60871 8.73901 9.02734 9.32038 9.02734 10.0349C9.02734 10.7495 9.60871 11.3308 10.3233 11.3308ZM10.3233 9.61873C10.5527 9.61873 10.7394 9.80544 10.7394 10.0349C10.7394 10.2643 10.5527 10.451 10.3233 10.451C10.0938 10.451 9.90713 10.2643 9.90713 10.0349C9.90713 9.80544 10.0938 9.61873 10.3233 9.61873Z" fill="#3BB77E"/>
<path d="M9.67858 13.0884C9.61746 13.3759 9.45411 13.6389 9.2062 13.849C8.64936 14.3206 8.35836 15.0097 8.40775 15.7393C8.4847 16.8759 9.40063 17.7833 10.5383 17.8498C10.9135 17.8717 11.2901 17.8008 11.6277 17.6443C11.7982 17.5653 12.0019 17.5653 12.1725 17.6443C12.4701 17.7822 12.798 17.8537 13.1284 17.8537C13.1729 17.8537 13.2175 17.8524 13.2619 17.8498C14.3996 17.7832 15.3155 16.8759 15.3924 15.7393C15.4418 15.0096 15.1508 14.3206 14.594 13.849C14.3461 13.6389 14.1827 13.3759 14.1217 13.0884C14.0156 12.5893 13.7511 12.1505 13.3568 11.8195C12.5263 11.1223 11.2738 11.1223 10.4433 11.8195C10.0491 12.1506 9.78467 12.5893 9.67858 13.0884ZM11.009 12.4933C11.517 12.0669 12.2831 12.0669 12.7911 12.4933C13.0337 12.6969 13.1962 12.9659 13.261 13.2712C13.363 13.7511 13.6273 14.1831 14.0253 14.5202C14.3666 14.8093 14.5449 15.232 14.5146 15.6799C14.4675 16.3755 13.9069 16.9308 13.2104 16.9716C12.9766 16.9852 12.7516 16.9431 12.5422 16.846C12.3382 16.7515 12.1191 16.7043 11.9 16.7043C11.681 16.7043 11.4619 16.7515 11.2578 16.846C11.0485 16.9431 10.8236 16.9853 10.5897 16.9716C9.89323 16.9308 9.33261 16.3755 9.28551 15.6799C9.25517 15.232 9.43356 14.8093 9.77485 14.5202C10.1728 14.1831 10.4371 13.7512 10.5391 13.2712C10.604 12.966 10.7665 12.6969 11.009 12.4933Z" fill="#3BB77E"/>
<path d="M29.2092 23.6004C30.1435 22.4084 30.6576 20.9256 30.6576 19.406C30.6576 15.6517 27.6032 12.5972 23.8488 12.5972C23.1469 12.5972 22.4612 12.7027 21.8024 12.9106C21.755 10.7357 21.6423 8.56382 21.4634 6.40352C21.3995 5.63616 21.5669 4.88751 21.9477 4.2385C22.4652 3.35585 22.9286 2.15017 22.1971 1.41861C21.8835 1.1053 21.0797 0.651106 17.7336 0.325591C15.6449 0.122424 13.3513 0.0500488 11.9014 0.0500488C10.4514 0.0500488 8.15786 0.122424 6.06911 0.32565C2.72295 0.651163 1.91919 1.10536 1.60553 1.41879C0.874092 2.15017 1.33749 3.35585 1.85503 4.23869C2.23573 4.88759 2.40318 5.6362 2.33919 6.40341C2.31438 6.70007 2.28981 7.0159 2.26201 7.3975C2.2443 7.63979 2.42641 7.85057 2.66869 7.86824C2.91104 7.88601 3.12178 7.70384 3.13943 7.46155C3.16705 7.08317 3.19134 6.77024 3.21591 6.47669C3.29503 5.5276 3.08682 4.59974 2.61391 3.79357C2.58987 3.75251 2.56735 3.71234 2.54494 3.67222C3.87667 3.11145 8.22566 2.74577 11.9014 2.74577C13.3005 2.74577 15.5206 2.81474 17.5556 3.00823C19.803 3.22196 20.8083 3.48758 21.2565 3.67445C21.2345 3.7138 21.2124 3.75322 21.1888 3.79351C20.7159 4.59974 20.5076 5.52752 20.5866 6.47642C21.0427 11.986 21.0667 17.572 20.6606 23.0871C19.7168 23.0869 18.7728 23.0943 17.8338 23.1097C17.7133 21.6133 16.457 20.4325 14.9301 20.4325C13.3237 20.4325 12.0168 21.7394 12.0168 23.3457C12.0168 24.0475 12.2681 24.7167 12.7183 25.2413C12.6057 25.3725 12.5055 25.5127 12.4187 25.6603C9.78746 25.6796 7.12196 25.5512 4.4921 25.2771C3.80453 25.2058 3.26465 24.6521 3.20835 23.9602C2.80729 19.066 2.74576 14.1011 3.02547 9.20361C3.03931 8.96106 2.85391 8.7532 2.61139 8.73932C2.36893 8.7256 2.16101 8.91089 2.14711 9.1534C1.86506 14.0915 1.92711 19.0973 2.33145 24.0317C2.42201 25.1454 3.29257 26.0371 4.40113 26.152C6.88912 26.4113 9.40841 26.5424 11.9023 26.5423C11.9612 26.5423 12.0199 26.5415 12.0787 26.5413C12.0383 26.7354 12.0168 26.9346 12.0168 27.1368C12.0168 28.7431 13.3236 30.05 14.93 30.05C16.4569 30.05 17.7132 28.8693 17.8337 27.3728C19.6839 27.4032 21.5531 27.4032 23.4028 27.3728C23.5233 28.8692 24.7797 30.05 26.3066 30.05C26.7753 30.05 27.2418 29.9358 27.6556 29.7197C27.871 29.6073 27.9544 29.3415 27.8419 29.1261C27.7294 28.9108 27.4636 28.8273 27.2484 28.9399C26.9557 29.0927 26.6388 29.1702 26.3066 29.1702C25.1853 29.1702 24.2731 28.258 24.2731 27.1368C24.2731 27.0859 24.2758 27.0304 24.2816 26.9622C24.2921 26.838 24.2494 26.7153 24.1643 26.6243C24.0791 26.5334 23.9595 26.4829 23.8348 26.4853C21.7008 26.5261 19.5363 26.5261 17.4018 26.4853C17.2779 26.4829 17.1576 26.5334 17.0723 26.6243C16.9872 26.7153 16.9445 26.838 16.955 26.9622C16.9608 27.0299 16.9635 27.0855 16.9635 27.1368C16.9635 28.258 16.0513 29.1702 14.9301 29.1702C13.8088 29.1702 12.8966 28.258 12.8966 27.1368C12.8966 26.5346 13.1619 25.9665 13.6246 25.5781C13.7242 25.4945 13.7817 25.3712 13.7817 25.2412C13.7817 25.1112 13.7242 24.9879 13.6246 24.9043C13.1619 24.5159 12.8966 23.9478 12.8966 23.3456C12.8966 22.2244 13.8088 21.3122 14.9301 21.3122C16.0513 21.3122 16.9635 22.2244 16.9635 23.3456C16.9635 23.3969 16.9608 23.4524 16.955 23.5202C16.9445 23.6444 16.9872 23.7671 17.0723 23.858C17.1576 23.9489 17.2777 23.9998 17.4018 23.9971C19.5363 23.9564 21.7007 23.9564 23.8348 23.9971C23.9596 23.9998 24.0791 23.9489 24.1643 23.858C24.2494 23.7671 24.2921 23.6444 24.2816 23.5202C24.2758 23.452 24.2731 23.3965 24.2731 23.3456C24.2731 22.2244 25.1853 21.3122 26.3066 21.3122C27.4281 21.3122 28.3406 22.2244 28.3406 23.3456C28.3406 23.9479 28.0752 24.516 27.6121 24.9041C27.5125 24.9877 27.4549 25.1111 27.4549 25.2412C27.4549 25.3713 27.5124 25.4947 27.6121 25.5783C28.0752 25.9664 28.3406 26.5345 28.3406 27.1368C28.3406 27.3936 28.2934 27.6437 28.2004 27.8802C28.1115 28.1063 28.2227 28.3616 28.4488 28.4506C28.6749 28.5395 28.9302 28.4283 29.0191 28.2022C29.1526 27.8628 29.2204 27.5044 29.2204 27.1369C29.2204 26.4349 28.969 25.7657 28.5186 25.2412C28.9142 24.7807 29.1561 24.2084 29.2092 23.6004ZM11.9015 1.86595C11.8219 1.86595 4.56166 1.87861 2.18946 2.87633C2.06829 2.48559 2.07697 2.19157 2.22758 2.04096C2.34658 1.92202 2.98148 1.50993 6.15431 1.20125C8.21175 1.00114 10.4721 0.929814 11.9014 0.929814C13.3306 0.929814 15.591 1.00114 17.6484 1.20125C20.8212 1.50993 21.4561 1.92202 21.575 2.04084C21.7258 2.19157 21.7345 2.48553 21.6133 2.87627C19.2411 1.87867 11.9811 1.86595 11.9015 1.86595ZM26.3067 20.4325C24.7798 20.4325 23.5234 21.6131 23.4029 23.1096C22.7845 23.0995 22.1638 23.094 21.5425 23.0906C21.7669 20.0183 21.8596 16.9245 21.8187 13.8338C22.4671 13.597 23.1486 13.477 23.8488 13.477C27.1181 13.477 29.7778 16.1368 29.7778 19.406C29.7778 20.4217 29.5143 21.4187 29.0242 22.2965C28.6021 21.2072 27.5435 20.4325 26.3067 20.4325Z" fill="#3BB77E"/>
</g>
</g>
</g>
<path d="M50.7434 19.472C51.1307 19.472 51.4644 19.4277 51.7444 19.339C52.0244 19.2504 52.2531 19.1267 52.4304 18.968C52.6124 18.8047 52.7454 18.6134 52.8294 18.394C52.9134 18.17 52.9554 17.925 52.9554 17.659C52.9554 17.141 52.7711 16.7327 52.4024 16.434C52.0337 16.1307 51.4807 15.979 50.7434 15.979H48.5734V19.472H50.7434ZM48.5734 11.59V15.013H50.3654C50.7481 15.013 51.0794 14.971 51.3594 14.887C51.6441 14.803 51.8774 14.6864 52.0594 14.537C52.2461 14.3877 52.3837 14.208 52.4724 13.998C52.5611 13.7834 52.6054 13.55 52.6054 13.298C52.6054 12.7054 52.4281 12.2737 52.0734 12.003C51.7187 11.7277 51.1681 11.59 50.4214 11.59H48.5734ZM50.4214 10.519C51.0374 10.519 51.5671 10.5797 52.0104 10.701C52.4584 10.8224 52.8247 10.995 53.1094 11.219C53.3987 11.443 53.6111 11.7184 53.7464 12.045C53.8817 12.367 53.9494 12.731 53.9494 13.137C53.9494 13.3844 53.9097 13.6224 53.8304 13.851C53.7557 14.075 53.6414 14.285 53.4874 14.481C53.3334 14.677 53.1374 14.8544 52.8994 15.013C52.6661 15.167 52.3907 15.293 52.0734 15.391C52.8107 15.531 53.3637 15.7947 53.7324 16.182C54.1057 16.5647 54.2924 17.0687 54.2924 17.694C54.2924 18.1187 54.2131 18.506 54.0544 18.856C53.9004 19.206 53.6717 19.507 53.3684 19.759C53.0697 20.011 52.7011 20.207 52.2624 20.347C51.8237 20.4824 51.3244 20.55 50.7644 20.55H47.2224V10.519H50.4214ZM59.7128 17.358C59.1388 17.3767 58.6488 17.4234 58.2428 17.498C57.8415 17.568 57.5125 17.6614 57.2558 17.778C57.0038 17.8947 56.8195 18.0324 56.7028 18.191C56.5908 18.3497 56.5348 18.527 56.5348 18.723C56.5348 18.9097 56.5651 19.0707 56.6258 19.206C56.6865 19.3414 56.7681 19.4534 56.8708 19.542C56.9781 19.626 57.1018 19.689 57.2418 19.731C57.3865 19.7684 57.5405 19.787 57.7038 19.787C57.9231 19.787 58.1238 19.766 58.3058 19.724C58.4878 19.6774 58.6581 19.612 58.8168 19.528C58.9801 19.444 59.1341 19.3437 59.2788 19.227C59.4281 19.1104 59.5728 18.9774 59.7128 18.828V17.358ZM55.6878 14.46C56.0798 14.082 56.5021 13.7997 56.9548 13.613C57.4075 13.4264 57.9091 13.333 58.4598 13.333C58.8565 13.333 59.2088 13.3984 59.5168 13.529C59.8248 13.6597 60.0838 13.8417 60.2938 14.075C60.5038 14.3084 60.6625 14.5907 60.7698 14.922C60.8771 15.2534 60.9308 15.6174 60.9308 16.014V20.55H60.3778C60.2565 20.55 60.1631 20.5314 60.0978 20.494C60.0325 20.452 59.9811 20.3727 59.9438 20.256L59.8038 19.584C59.6171 19.7567 59.4351 19.9107 59.2578 20.046C59.0805 20.1767 58.8938 20.2887 58.6978 20.382C58.5018 20.4707 58.2918 20.5384 58.0678 20.585C57.8485 20.6364 57.6035 20.662 57.3328 20.662C57.0575 20.662 56.7985 20.6247 56.5558 20.55C56.3131 20.4707 56.1008 20.354 55.9188 20.2C55.7415 20.046 55.5991 19.8524 55.4918 19.619C55.3891 19.381 55.3378 19.101 55.3378 18.779C55.3378 18.499 55.4148 18.2307 55.5688 17.974C55.7228 17.7127 55.9725 17.4817 56.3178 17.281C56.6631 17.0804 57.1135 16.917 57.6688 16.791C58.2241 16.6604 58.9055 16.5857 59.7128 16.567V16.014C59.7128 15.4634 59.5938 15.048 59.3558 14.768C59.1178 14.4834 58.7701 14.341 58.3128 14.341C58.0048 14.341 57.7458 14.3807 57.5358 14.46C57.3305 14.5347 57.1508 14.621 56.9968 14.719C56.8475 14.8124 56.7168 14.8987 56.6048 14.978C56.4975 15.0527 56.3901 15.09 56.2828 15.09C56.1988 15.09 56.1265 15.069 56.0658 15.027C56.0051 14.9804 55.9538 14.9244 55.9118 14.859L55.6878 14.46ZM64.0818 10.239V16.308H64.4038C64.4971 16.308 64.5741 16.2964 64.6348 16.273C64.7001 16.245 64.7678 16.1914 64.8378 16.112L67.0778 13.711C67.1431 13.6317 67.2108 13.571 67.2808 13.529C67.3555 13.4824 67.4535 13.459 67.5748 13.459H68.7018L66.0908 16.238C65.9648 16.3967 65.8295 16.5204 65.6848 16.609C65.7688 16.665 65.8435 16.7304 65.9088 16.805C65.9788 16.875 66.0441 16.9567 66.1048 17.05L68.8768 20.55H67.7638C67.6565 20.55 67.5631 20.5337 67.4838 20.501C67.4091 20.4637 67.3438 20.3984 67.2878 20.305L64.9568 17.4C64.8868 17.302 64.8168 17.239 64.7468 17.211C64.6815 17.1784 64.5788 17.162 64.4388 17.162H64.0818V20.55H62.8288V10.239H64.0818ZM71.2542 13.459V20.55H70.0082V13.459H71.2542ZM71.5202 11.233C71.5202 11.3544 71.4945 11.4687 71.4432 11.576C71.3965 11.6787 71.3312 11.772 71.2472 11.856C71.1678 11.9354 71.0722 11.9984 70.9602 12.045C70.8528 12.0917 70.7385 12.115 70.6172 12.115C70.4958 12.115 70.3815 12.0917 70.2742 12.045C70.1715 11.9984 70.0805 11.9354 70.0012 11.856C69.9218 11.772 69.8588 11.6787 69.8122 11.576C69.7655 11.4687 69.7422 11.3544 69.7422 11.233C69.7422 11.1117 69.7655 10.9974 69.8122 10.89C69.8588 10.778 69.9218 10.6824 70.0012 10.603C70.0805 10.519 70.1715 10.4537 70.2742 10.407C70.3815 10.3604 70.4958 10.337 70.6172 10.337C70.7385 10.337 70.8528 10.3604 70.9602 10.407C71.0722 10.4537 71.1678 10.519 71.2472 10.603C71.3312 10.6824 71.3965 10.778 71.4432 10.89C71.4945 10.9974 71.5202 11.1117 71.5202 11.233ZM74.4775 14.488C74.6315 14.3154 74.7948 14.159 74.9675 14.019C75.1401 13.879 75.3221 13.76 75.5135 13.662C75.7095 13.5594 75.9148 13.4824 76.1295 13.431C76.3488 13.375 76.5845 13.347 76.8365 13.347C77.2238 13.347 77.5645 13.4124 77.8585 13.543C78.1571 13.669 78.4045 13.851 78.6005 14.089C78.8011 14.3224 78.9528 14.6047 79.0555 14.936C79.1581 15.2674 79.2095 15.6337 79.2095 16.035V20.55H77.9565V16.035C77.9565 15.4984 77.8328 15.083 77.5855 14.789C77.3428 14.4904 76.9718 14.341 76.4725 14.341C76.1038 14.341 75.7585 14.4297 75.4365 14.607C75.1191 14.7844 74.8251 15.0247 74.5545 15.328V20.55H73.3015V13.459H74.0505C74.2278 13.459 74.3375 13.5454 74.3795 13.718L74.4775 14.488ZM83.5791 17.085C83.8311 17.085 84.0528 17.05 84.2441 16.98C84.4354 16.91 84.5964 16.812 84.7271 16.686C84.8578 16.56 84.9558 16.4107 85.0211 16.238C85.0864 16.0607 85.1191 15.867 85.1191 15.657C85.1191 15.223 84.9861 14.8777 84.7201 14.621C84.4588 14.3644 84.0784 14.236 83.5791 14.236C83.0751 14.236 82.6901 14.3644 82.4241 14.621C82.1628 14.8777 82.0321 15.223 82.0321 15.657C82.0321 15.867 82.0648 16.0607 82.1301 16.238C82.2001 16.4107 82.3004 16.56 82.4311 16.686C82.5618 16.812 82.7228 16.91 82.9141 16.98C83.1054 17.05 83.3271 17.085 83.5791 17.085ZM85.8261 20.935C85.8261 20.7624 85.7771 20.6224 85.6791 20.515C85.5811 20.4077 85.4481 20.3237 85.2801 20.263C85.1168 20.2024 84.9254 20.1604 84.7061 20.137C84.4868 20.109 84.2534 20.088 84.0061 20.074C83.7634 20.06 83.5161 20.046 83.2641 20.032C83.0121 20.018 82.7694 19.9947 82.5361 19.962C82.2748 20.0834 82.0601 20.2374 81.8921 20.424C81.7288 20.606 81.6471 20.8207 81.6471 21.068C81.6471 21.2267 81.6868 21.3737 81.7661 21.509C81.8501 21.649 81.9761 21.768 82.1441 21.866C82.3121 21.9687 82.5221 22.048 82.7741 22.104C83.0308 22.1647 83.3318 22.195 83.6771 22.195C84.0131 22.195 84.3141 22.1647 84.5801 22.104C84.8461 22.0434 85.0701 21.957 85.2521 21.845C85.4388 21.733 85.5811 21.6 85.6791 21.446C85.7771 21.292 85.8261 21.1217 85.8261 20.935ZM87.0931 13.739V14.201C87.0931 14.355 86.9951 14.453 86.7991 14.495L85.9941 14.6C86.1528 14.908 86.2321 15.2487 86.2321 15.622C86.2321 15.9674 86.1644 16.2824 86.0291 16.567C85.8984 16.847 85.7164 17.0874 85.4831 17.288C85.2498 17.4887 84.9698 17.6427 84.6431 17.75C84.3164 17.8574 83.9618 17.911 83.5791 17.911C83.2478 17.911 82.9351 17.8714 82.6411 17.792C82.4918 17.8854 82.3774 17.9857 82.2981 18.093C82.2188 18.1957 82.1791 18.3007 82.1791 18.408C82.1791 18.576 82.2468 18.7044 82.3821 18.793C82.5221 18.877 82.7041 18.9377 82.9281 18.975C83.1521 19.0124 83.4064 19.0357 83.6911 19.045C83.9804 19.0544 84.2744 19.0707 84.5731 19.094C84.8764 19.1127 85.1704 19.1477 85.4551 19.199C85.7444 19.2504 86.0011 19.3344 86.2251 19.451C86.4491 19.5677 86.6288 19.7287 86.7641 19.934C86.9041 20.1394 86.9741 20.4054 86.9741 20.732C86.9741 21.0354 86.8971 21.3294 86.7431 21.614C86.5938 21.8987 86.3768 22.1507 86.0921 22.37C85.8074 22.594 85.4574 22.7714 85.0421 22.902C84.6314 23.0374 84.1671 23.105 83.6491 23.105C83.1311 23.105 82.6784 23.0537 82.2911 22.951C81.9038 22.8484 81.5818 22.7107 81.3251 22.538C81.0684 22.3654 80.8748 22.1647 80.7441 21.936C80.6181 21.712 80.5551 21.4764 80.5551 21.229C80.5551 20.879 80.6648 20.5827 80.8841 20.34C81.1034 20.0974 81.4044 19.9037 81.7871 19.759C81.5771 19.6657 81.4091 19.542 81.2831 19.388C81.1618 19.2294 81.1011 19.017 81.1011 18.751C81.1011 18.6484 81.1198 18.5434 81.1571 18.436C81.1944 18.324 81.2504 18.2144 81.3251 18.107C81.4044 17.995 81.5001 17.89 81.6121 17.792C81.7241 17.694 81.8548 17.6077 82.0041 17.533C81.6541 17.337 81.3811 17.078 81.1851 16.756C80.9891 16.4294 80.8911 16.0514 80.8911 15.622C80.8911 15.2767 80.9564 14.964 81.0871 14.684C81.2224 14.3994 81.4091 14.159 81.6471 13.963C81.8851 13.7624 82.1674 13.6084 82.4941 13.501C82.8254 13.3937 83.1871 13.34 83.5791 13.34C83.8871 13.34 84.1741 13.375 84.4401 13.445C84.7061 13.5104 84.9488 13.6084 85.1681 13.739H87.0931ZM91.9636 20.55V13.459H92.7126C92.8899 13.459 92.9996 13.5454 93.0416 13.718L93.1326 14.446C93.3939 14.124 93.6879 13.8604 94.0146 13.655C94.3412 13.4497 94.7192 13.347 95.1486 13.347C95.6246 13.347 96.0096 13.48 96.3036 13.746C96.6022 14.012 96.8169 14.3714 96.9476 14.824C97.0502 14.5674 97.1809 14.3457 97.3396 14.159C97.5029 13.9724 97.6849 13.8184 97.8856 13.697C98.0862 13.5757 98.2986 13.487 98.5226 13.431C98.7512 13.375 98.9822 13.347 99.2156 13.347C99.5889 13.347 99.9202 13.4077 100.21 13.529C100.504 13.6457 100.751 13.8184 100.952 14.047C101.157 14.2757 101.313 14.558 101.421 14.894C101.528 15.2254 101.582 15.6057 101.582 16.035V20.55H100.329V16.035C100.329 15.4797 100.207 15.0597 99.9646 14.775C99.7219 14.4857 99.3719 14.341 98.9146 14.341C98.7092 14.341 98.5132 14.3784 98.3266 14.453C98.1446 14.523 97.9836 14.628 97.8436 14.768C97.7036 14.908 97.5916 15.0854 97.5076 15.3C97.4282 15.51 97.3886 15.755 97.3886 16.035V20.55H96.1356V16.035C96.1356 15.4657 96.0212 15.041 95.7926 14.761C95.5639 14.481 95.2302 14.341 94.7916 14.341C94.4836 14.341 94.1989 14.425 93.9376 14.593C93.6762 14.7564 93.4359 14.9804 93.2166 15.265V20.55H91.9636ZM107.318 17.358C106.744 17.3767 106.254 17.4234 105.848 17.498C105.447 17.568 105.118 17.6614 104.861 17.778C104.609 17.8947 104.425 18.0324 104.308 18.191C104.196 18.3497 104.14 18.527 104.14 18.723C104.14 18.9097 104.171 19.0707 104.231 19.206C104.292 19.3414 104.374 19.4534 104.476 19.542C104.584 19.626 104.707 19.689 104.847 19.731C104.992 19.7684 105.146 19.787 105.309 19.787C105.529 19.787 105.729 19.766 105.911 19.724C106.093 19.6774 106.264 19.612 106.422 19.528C106.586 19.444 106.74 19.3437 106.884 19.227C107.034 19.1104 107.178 18.9774 107.318 18.828V17.358ZM103.293 14.46C103.685 14.082 104.108 13.7997 104.56 13.613C105.013 13.4264 105.515 13.333 106.065 13.333C106.462 13.333 106.814 13.3984 107.122 13.529C107.43 13.6597 107.689 13.8417 107.899 14.075C108.109 14.3084 108.268 14.5907 108.375 14.922C108.483 15.2534 108.536 15.6174 108.536 16.014V20.55H107.983C107.862 20.55 107.769 20.5314 107.703 20.494C107.638 20.452 107.587 20.3727 107.549 20.256L107.409 19.584C107.223 19.7567 107.041 19.9107 106.863 20.046C106.686 20.1767 106.499 20.2887 106.303 20.382C106.107 20.4707 105.897 20.5384 105.673 20.585C105.454 20.6364 105.209 20.662 104.938 20.662C104.663 20.662 104.404 20.6247 104.161 20.55C103.919 20.4707 103.706 20.354 103.524 20.2C103.347 20.046 103.205 19.8524 103.097 19.619C102.995 19.381 102.943 19.101 102.943 18.779C102.943 18.499 103.02 18.2307 103.174 17.974C103.328 17.7127 103.578 17.4817 103.923 17.281C104.269 17.0804 104.719 16.917 105.274 16.791C105.83 16.6604 106.511 16.5857 107.318 16.567V16.014C107.318 15.4634 107.199 15.048 106.961 14.768C106.723 14.4834 106.376 14.341 105.918 14.341C105.61 14.341 105.351 14.3807 105.141 14.46C104.936 14.5347 104.756 14.621 104.602 14.719C104.453 14.8124 104.322 14.8987 104.21 14.978C104.103 15.0527 103.996 15.09 103.888 15.09C103.804 15.09 103.732 15.069 103.671 15.027C103.611 14.9804 103.559 14.9244 103.517 14.859L103.293 14.46ZM112.516 20.662C111.956 20.662 111.524 20.5057 111.221 20.193C110.922 19.8804 110.773 19.43 110.773 18.842V14.502H109.919C109.844 14.502 109.781 14.481 109.73 14.439C109.678 14.3924 109.653 14.3224 109.653 14.229V13.732L110.815 13.585L111.102 11.394C111.116 11.324 111.146 11.268 111.193 11.226C111.244 11.1794 111.309 11.156 111.389 11.156H112.019V13.599H114.07V14.502H112.019V18.758C112.019 19.0567 112.091 19.2784 112.236 19.423C112.38 19.5677 112.567 19.64 112.796 19.64C112.926 19.64 113.038 19.6237 113.132 19.591C113.23 19.5537 113.314 19.514 113.384 19.472C113.454 19.43 113.512 19.3927 113.559 19.36C113.61 19.3227 113.654 19.304 113.692 19.304C113.757 19.304 113.815 19.3437 113.867 19.423L114.231 20.018C114.016 20.2187 113.757 20.3774 113.454 20.494C113.15 20.606 112.838 20.662 112.516 20.662ZM120.061 16.231C120.061 15.9417 120.019 15.678 119.935 15.44C119.856 15.1974 119.737 14.9897 119.578 14.817C119.424 14.6397 119.235 14.5044 119.011 14.411C118.787 14.313 118.533 14.264 118.248 14.264C117.651 14.264 117.177 14.439 116.827 14.789C116.482 15.1344 116.267 15.615 116.183 16.231H120.061ZM121.069 19.556C120.915 19.7427 120.731 19.906 120.516 20.046C120.301 20.1814 120.07 20.2934 119.823 20.382C119.58 20.4707 119.328 20.536 119.067 20.578C118.806 20.6247 118.547 20.648 118.29 20.648C117.8 20.648 117.347 20.5664 116.932 20.403C116.521 20.235 116.164 19.9924 115.861 19.675C115.562 19.353 115.329 18.9564 115.161 18.485C114.993 18.0137 114.909 17.4724 114.909 16.861C114.909 16.3664 114.984 15.9044 115.133 15.475C115.287 15.0457 115.506 14.6747 115.791 14.362C116.076 14.0447 116.423 13.7974 116.834 13.62C117.245 13.438 117.707 13.347 118.22 13.347C118.645 13.347 119.037 13.4194 119.396 13.564C119.76 13.704 120.073 13.9094 120.334 14.18C120.6 14.446 120.808 14.7774 120.957 15.174C121.106 15.566 121.181 16.014 121.181 16.518C121.181 16.714 121.16 16.8447 121.118 16.91C121.076 16.9754 120.997 17.008 120.88 17.008H116.141C116.155 17.456 116.216 17.8457 116.323 18.177C116.435 18.5084 116.589 18.786 116.785 19.01C116.981 19.2294 117.214 19.395 117.485 19.507C117.756 19.6144 118.059 19.668 118.395 19.668C118.708 19.668 118.976 19.633 119.2 19.563C119.429 19.4884 119.625 19.409 119.788 19.325C119.951 19.241 120.087 19.164 120.194 19.094C120.306 19.0194 120.402 18.982 120.481 18.982C120.584 18.982 120.663 19.0217 120.719 19.101L121.069 19.556ZM123.895 14.88C124.119 14.3947 124.394 14.0167 124.721 13.746C125.047 13.4707 125.446 13.333 125.918 13.333C126.067 13.333 126.209 13.3494 126.345 13.382C126.485 13.4147 126.608 13.466 126.716 13.536L126.625 14.467C126.597 14.5837 126.527 14.642 126.415 14.642C126.349 14.642 126.254 14.628 126.128 14.6C126.002 14.572 125.859 14.558 125.701 14.558C125.477 14.558 125.276 14.5907 125.099 14.656C124.926 14.7214 124.77 14.8194 124.63 14.95C124.494 15.076 124.371 15.2347 124.259 15.426C124.151 15.6127 124.053 15.8274 123.965 16.07V20.55H122.712V13.459H123.426C123.561 13.459 123.654 13.4847 123.706 13.536C123.757 13.5874 123.792 13.676 123.811 13.802L123.895 14.88ZM129.127 13.459V20.55H127.881V13.459H129.127ZM129.393 11.233C129.393 11.3544 129.368 11.4687 129.316 11.576C129.27 11.6787 129.204 11.772 129.12 11.856C129.041 11.9354 128.945 11.9984 128.833 12.045C128.726 12.0917 128.612 12.115 128.49 12.115C128.369 12.115 128.255 12.0917 128.147 12.045C128.045 11.9984 127.954 11.9354 127.874 11.856C127.795 11.772 127.732 11.6787 127.685 11.576C127.639 11.4687 127.615 11.3544 127.615 11.233C127.615 11.1117 127.639 10.9974 127.685 10.89C127.732 10.778 127.795 10.6824 127.874 10.603C127.954 10.519 128.045 10.4537 128.147 10.407C128.255 10.3604 128.369 10.337 128.49 10.337C128.612 10.337 128.726 10.3604 128.833 10.407C128.945 10.4537 129.041 10.519 129.12 10.603C129.204 10.6824 129.27 10.778 129.316 10.89C129.368 10.9974 129.393 11.1117 129.393 11.233ZM135.018 17.358C134.444 17.3767 133.954 17.4234 133.548 17.498C133.146 17.568 132.817 17.6614 132.561 17.778C132.309 17.8947 132.124 18.0324 132.008 18.191C131.896 18.3497 131.84 18.527 131.84 18.723C131.84 18.9097 131.87 19.0707 131.931 19.206C131.991 19.3414 132.073 19.4534 132.176 19.542C132.283 19.626 132.407 19.689 132.547 19.731C132.691 19.7684 132.845 19.787 133.009 19.787C133.228 19.787 133.429 19.766 133.611 19.724C133.793 19.6774 133.963 19.612 134.122 19.528C134.285 19.444 134.439 19.3437 134.584 19.227C134.733 19.1104 134.878 18.9774 135.018 18.828V17.358ZM130.993 14.46C131.385 14.082 131.807 13.7997 132.26 13.613C132.712 13.4264 133.214 13.333 133.765 13.333C134.161 13.333 134.514 13.3984 134.822 13.529C135.13 13.6597 135.389 13.8417 135.599 14.075C135.809 14.3084 135.967 14.5907 136.075 14.922C136.182 15.2534 136.236 15.6174 136.236 16.014V20.55H135.683C135.561 20.55 135.468 20.5314 135.403 20.494C135.337 20.452 135.286 20.3727 135.249 20.256L135.109 19.584C134.922 19.7567 134.74 19.9107 134.562 20.046C134.385 20.1767 134.199 20.2887 134.003 20.382C133.807 20.4707 133.597 20.5384 133.373 20.585C133.153 20.6364 132.908 20.662 132.638 20.662C132.362 20.662 132.103 20.6247 131.861 20.55C131.618 20.4707 131.406 20.354 131.224 20.2C131.046 20.046 130.904 19.8524 130.797 19.619C130.694 19.381 130.643 19.101 130.643 18.779C130.643 18.499 130.72 18.2307 130.874 17.974C131.028 17.7127 131.277 17.4817 131.623 17.281C131.968 17.0804 132.418 16.917 132.974 16.791C133.529 16.6604 134.21 16.5857 135.018 16.567V16.014C135.018 15.4634 134.899 15.048 134.661 14.768C134.423 14.4834 134.075 14.341 133.618 14.341C133.31 14.341 133.051 14.3807 132.841 14.46C132.635 14.5347 132.456 14.621 132.302 14.719C132.152 14.8124 132.022 14.8987 131.91 14.978C131.802 15.0527 131.695 15.09 131.588 15.09C131.504 15.09 131.431 15.069 131.371 15.027C131.31 14.9804 131.259 14.9244 131.216 14.859L130.993 14.46ZM139.421 10.239V20.55H138.175V10.239H139.421Z" fill="#253D4E"/>
<defs>
<clipPath id="clip0_6511_7454">
<rect width="30" height="30" fill="white" transform="translate(0.941406 0.0500488)"/>
</clipPath>
<clipPath id="clip1_6511_7454">
<rect width="30" height="30" fill="white" transform="translate(0.941406 0.0500488)"/>
</clipPath>
<clipPath id="clip2_6511_7454">
<rect width="30" height="30" fill="white" transform="translate(0.941406 0.0500488)"/>
</clipPath>
</defs>
</svg>
