<svg width="107" height="31" viewBox="0 0 107 31" fill="none" xmlns="http://www.w3.org/2000/svg">
<g clip-path="url(#clip0_6511_7438)">
<g clip-path="url(#clip1_6511_7438)">
<g clip-path="url(#clip2_6511_7438)">
<mask id="mask0_6511_7438" style="mask-type:luminance" maskUnits="userSpaceOnUse" x="0" y="0" width="31" height="31">
<path d="M30.9414 0.0500488H0.941406V30.05H30.9414V0.0500488Z" fill="white"/>
</mask>
<g mask="url(#mask0_6511_7438)">
<path d="M9.37891 21.4251C8.47891 21.2751 8.00389 21.6126 7.87891 21.8001L7.69141 21.9876C7.50391 22.2376 7.12891 22.7751 7.12891 22.9251V24.0501C7.12891 24.2376 7.12891 24.8001 7.31641 25.1751C7.50391 25.5501 7.50391 25.7376 7.69141 25.9251C7.87891 26.1126 8.06641 26.3001 8.25391 26.3001C8.44141 26.3001 9.37891 26.4876 9.56641 26.4876H11.6289C12.1914 26.4876 12.3789 26.3001 12.7539 26.3001C13.1289 26.3001 13.5039 26.1126 13.5039 25.9251C13.5039 25.7376 13.6914 25.5501 13.8789 25.3626C14.0664 25.1751 13.8789 24.8001 14.0664 24.4909C14.2539 24.1816 14.0664 24.0501 14.0664 23.8626V22.9251C14.0664 22.7376 13.8789 22.5501 13.8789 22.3626C13.8789 22.1751 13.5039 21.9876 13.3164 21.8001C13.1664 21.6501 12.7539 21.4876 12.5664 21.4251C11.8789 21.4876 10.2789 21.5751 9.37891 21.4251Z" fill="#FDC040"/>
<path d="M26.0664 11.675C23.3664 12.725 18.1914 12.1126 15.9414 11.675L15.3789 12.05L14.4414 13.55L13.8789 14.8625C14.4789 15.0125 16.2539 16.55 17.0664 17.3L17.6289 18.425C18.9789 18.575 19.3164 19.7375 19.3164 20.3L19.5039 24.2375C22.0539 24.9875 27.9414 23.8 30.5664 23.1125C30.7164 22.8125 30.1289 19.6126 29.8164 18.05C29.0664 15.8 27.0039 12.8626 26.0664 11.675Z" fill="#FDC040"/>
<path d="M28.7272 14.6443C27.8316 13.0075 26.9414 11.9498 26.6207 11.5917V9.17589L30.781 5.75983C30.8801 5.67842 30.9387 5.55789 30.9415 5.42968C30.9443 5.30147 30.8909 5.1785 30.7955 5.09293L27.6477 2.27154C27.467 2.10957 27.1891 2.12481 27.0271 2.30546C26.865 2.48617 26.8803 2.76404 27.061 2.92605L29.8274 5.4056L26.6209 8.03852V6.24125C26.6209 5.99855 26.4242 5.80175 26.1814 5.80175C25.9386 5.80175 25.742 5.99855 25.742 6.24125L25.7417 11.3917C22.6038 11.8995 19.428 11.8994 16.2902 11.3915V6.24125C16.2902 5.99855 16.0935 5.80175 15.8507 5.80175C15.608 5.80175 15.4112 5.99855 15.4112 6.24125V8.03867L12.2045 5.4056L15.6255 2.33886C16.1288 1.88756 16.7787 1.69999 17.4042 1.77429C17.533 2.32755 17.8288 3.48805 18.283 4.64417C19.0294 6.54388 19.9001 7.6796 20.8706 8.01962C20.9177 8.03608 20.9668 8.04437 21.0159 8.04437C21.065 8.04437 21.1142 8.03608 21.1611 8.01962C22.1317 7.6796 23.0024 6.54388 23.749 4.6442C24.2025 3.49028 24.4979 2.33283 24.6272 1.77822C25.0144 1.73192 25.4143 1.78372 25.786 1.94287C26.0093 2.03844 26.2675 1.9349 26.363 1.71183C26.4586 1.48869 26.3551 1.2304 26.132 1.13489C25.0031 0.65153 23.6869 0.873552 22.7786 1.70028L22.373 2.06944C21.5993 2.774 20.4328 2.774 19.6593 2.06944L19.2539 1.70028C18.0564 0.610163 16.2442 0.603425 15.0387 1.68452L11.2364 5.09304C11.1409 5.17862 11.0876 5.30165 11.0904 5.42979C11.0931 5.558 11.1518 5.67853 11.2508 5.75994L15.4111 9.17604V11.5915C15.123 11.9121 14.3826 12.7877 13.5934 14.1304C12.9251 13.7742 12.2182 13.4226 11.5022 13.0666C10.8765 12.7555 10.2464 12.4421 9.6414 12.1239C10.2326 11.3835 10.6887 10.5455 10.8885 9.563C11.1939 8.06158 10.7472 6.72043 9.66289 5.88339C8.63494 5.08989 7.21931 4.913 6.14018 5.44322C5.5617 5.72743 4.5913 6.46502 4.5913 8.21143C4.5913 9.31689 5.29335 10.3619 6.73766 11.4064C7.18943 11.7331 7.69736 12.0494 8.23796 12.3582C7.56773 13.0175 6.79856 13.6042 6.07189 14.1584C4.50745 15.3517 3.02315 16.4847 2.98477 18.0113C2.02766 18.2407 1.28917 19.0388 1.16061 20.0441C0.868337 22.3329 0.868337 24.6539 1.16061 26.9428C1.30828 28.0968 2.26017 28.9788 3.42412 29.0398C5.7579 29.1615 8.10806 29.2223 10.4583 29.2223C12.8085 29.2223 15.1588 29.1614 17.4926 29.0398C18.6569 28.9787 19.6085 28.0967 19.7554 26.9428C19.843 26.2585 19.9037 25.5713 19.9389 24.8829C20.2965 24.8936 20.657 24.8994 21.0159 24.8994C26.753 24.8994 30.4961 23.557 30.6527 23.4999C30.8261 23.4365 30.9415 23.2717 30.9415 23.0871C30.9416 19.454 29.7374 16.4906 28.7272 14.6443ZM19.0676 2.71903C20.1782 3.73093 21.8537 3.73093 22.9649 2.71915L23.3704 2.35005C23.4528 2.27505 23.5399 2.20702 23.6308 2.14596C23.4782 2.72817 23.244 3.52655 22.9311 4.32257C22.1986 6.18669 21.5069 6.8852 21.0161 7.12843C20.5253 6.8852 19.8336 6.18669 19.1012 4.32257C18.7884 3.52643 18.5542 2.72753 18.4016 2.14508C18.492 2.2062 18.5792 2.27441 18.6623 2.34999L19.0676 2.71903ZM5.47046 8.21117C5.47046 7.25619 5.83613 6.57174 6.52796 6.2318C6.81731 6.08964 7.14795 6.02068 7.4883 6.02068C8.05703 6.02068 8.6526 6.21339 9.12604 6.57887C9.60143 6.9458 10.3506 7.79867 10.0275 9.3875C9.85035 10.2585 9.41696 11.0162 8.85139 11.6955C6.95201 10.6311 5.47046 9.50105 5.47046 8.21117ZM3.46994 18.8251C4.25331 18.7844 5.03696 18.7504 5.79919 18.7241C6.04178 18.7156 6.23156 18.5123 6.22313 18.2697C6.21469 18.027 6.01283 17.838 5.76874 17.8457C5.14714 17.8672 4.51131 17.8939 3.87308 17.925C3.98629 16.8554 5.21036 15.9208 6.60514 14.8571C7.42448 14.2321 8.29429 13.5687 9.04189 12.8004C9.71535 13.1593 10.4185 13.509 11.111 13.8534C11.8043 14.1981 12.5031 14.5457 13.1658 14.8993C12.7305 15.7265 12.3023 16.6891 11.9479 17.7736C10.4696 17.7571 8.99363 17.7635 7.52873 17.7957C7.28603 17.801 7.09365 18.002 7.09898 18.2447C7.1043 18.4874 7.30429 18.6818 7.54793 18.6744C10.824 18.6025 14.1546 18.6532 17.447 18.8251C18.1863 18.8634 18.7905 19.4228 18.8838 20.1553C18.9455 20.6377 18.993 21.1215 19.0278 21.6061C18.9923 22.0925 18.944 22.5753 18.8838 23.0424C18.7906 23.7744 18.1862 24.3335 17.4463 24.3719C16.4513 24.4238 15.4516 24.4643 14.4661 24.4939C14.4872 23.8733 14.4735 23.2502 14.4238 22.6331C14.3566 21.7984 13.6795 21.1347 12.8489 21.0893C11.4269 21.0115 9.98483 21.0114 8.56313 21.0893C7.7325 21.1347 7.05548 21.7984 6.98824 22.6331C6.93814 23.2549 6.9246 23.8828 6.94639 24.5081C5.78906 24.4773 4.62229 24.4322 3.46994 24.3719C2.73034 24.3335 2.12587 23.7745 2.0327 23.0423C1.97375 22.5806 1.92541 22.0994 1.88861 21.6114C1.92342 21.125 1.97088 20.6394 2.0327 20.1553C2.12633 19.4229 2.73081 18.8634 3.46994 18.8251ZM13.9392 15.3256C15.363 16.1404 16.5133 16.9926 16.8999 17.9192C15.56 17.8552 14.2152 17.8109 12.8708 17.7868C13.1876 16.8693 13.5604 16.0445 13.9392 15.3256ZM13.5476 25.1742C13.5155 25.5727 13.1945 25.8894 12.8009 25.911C11.4108 25.9871 10.0013 25.9871 8.61105 25.911C8.21745 25.8894 7.89641 25.5727 7.86428 25.1742C7.79824 24.3546 7.79824 23.5233 7.86428 22.7037C7.89641 22.3052 8.21745 21.9884 8.61109 21.9669C9.30611 21.9289 10.0061 21.9098 10.706 21.9098C11.4059 21.9098 12.1058 21.9289 12.8009 21.9669C13.1945 21.9884 13.5155 22.3052 13.5476 22.7037C13.6137 23.5233 13.6137 24.3546 13.5476 25.1742ZM17.4469 28.1618C12.8097 28.4036 8.10728 28.4036 3.47024 28.1618C2.73099 28.1231 2.12633 27.5634 2.0327 26.8311C1.93578 26.0721 1.87285 25.3093 1.84238 24.5455C2.25173 24.9559 2.80822 25.2177 3.42424 25.2496C4.61145 25.3118 5.81419 25.358 7.00631 25.389C7.1352 26.1548 7.78099 26.7459 8.56305 26.7886C9.27405 26.8276 9.99004 26.847 10.706 26.847C11.4219 26.847 12.1379 26.8276 12.8488 26.7886C13.6357 26.7456 14.2844 26.1475 14.4077 25.375C15.427 25.3451 16.4621 25.3035 17.4919 25.2496C18.1083 25.2177 18.665 24.9557 19.0744 24.5452C19.0439 25.3091 18.9809 26.0721 18.8838 26.8313C18.7905 27.5635 18.1862 28.1231 17.4469 28.1618ZM28.6203 23.1639C28.5299 21.8427 28.3628 20.5264 28.122 19.2435C28.0772 19.0049 27.8478 18.8479 27.609 18.8927C27.3705 18.9374 27.2133 19.1671 27.2582 19.4057C27.5007 20.6978 27.6658 22.025 27.7515 23.3564C27.4132 23.4257 27.0295 23.4977 26.6048 23.5678C26.5517 21.8004 26.3631 20.0406 26.0421 18.3293C25.9973 18.0907 25.7676 17.9337 25.5291 17.9783C25.2906 18.0231 25.1335 18.2527 25.1783 18.4913C25.4972 20.1922 25.6823 21.9425 25.7296 23.7C24.4192 23.8798 22.8189 24.0203 21.0159 24.0203C20.6673 24.0203 20.3171 24.0148 19.9698 24.0044C19.9946 22.6818 19.9235 21.3577 19.7555 20.0443C19.6238 19.0094 18.8453 18.1942 17.8471 17.9927C17.5244 16.6498 16.1457 15.571 14.3685 14.5568C15.0709 13.368 15.7281 12.566 16.015 12.237C17.6749 12.5132 19.3455 12.6518 21.0162 12.6518C22.6867 12.6518 24.3572 12.5133 26.0171 12.2371C26.3468 12.6142 27.1631 13.6113 27.9704 15.0926C28.8954 16.7899 29.9926 19.4802 30.0593 22.7711C29.7735 22.8613 29.2834 23.0056 28.6203 23.1639Z" fill="#3BB77E"/>
<path d="M12.4684 22.6334C11.8814 22.606 11.2881 22.592 10.7049 22.592C10.1216 22.592 9.52827 22.606 8.94125 22.6334C8.71707 22.6439 8.53681 22.8216 8.52312 23.0457C8.48708 23.6383 8.48708 24.2394 8.52312 24.8321C8.53677 25.0562 8.71707 25.2339 8.94125 25.2444C9.52778 25.2718 10.1212 25.2858 10.7049 25.2858C11.2885 25.2858 11.8818 25.2719 12.4684 25.2444C12.6926 25.2339 12.8728 25.0562 12.8865 24.8321C12.9225 24.2394 12.9225 23.6384 12.8865 23.0457C12.8729 22.8217 12.6926 22.6439 12.4684 22.6334ZM12.0276 24.383C11.1442 24.4147 10.2654 24.4147 9.38217 24.383C9.37276 24.0874 9.37276 23.7905 9.38217 23.4949C10.266 23.4631 11.1438 23.4631 12.0276 23.4949C12.037 23.7905 12.037 24.0874 12.0276 24.383Z" fill="#3BB77E"/>
</g>
</g>
</g>
</g>
<path d="M50.1834 15.72C50.5707 15.72 50.9114 15.6687 51.2054 15.566C51.5041 15.4634 51.7537 15.321 51.9544 15.139C52.1597 14.9524 52.3137 14.7307 52.4164 14.474C52.5191 14.2174 52.5704 13.935 52.5704 13.627C52.5704 12.9877 52.3721 12.4884 51.9754 12.129C51.5834 11.7697 50.9861 11.59 50.1834 11.59H48.5734V15.72H50.1834ZM50.1834 10.519C50.8181 10.519 51.3687 10.5937 51.8354 10.743C52.3067 10.8877 52.6964 11.0954 53.0044 11.366C53.3124 11.6367 53.5411 11.9634 53.6904 12.346C53.8444 12.7287 53.9214 13.1557 53.9214 13.627C53.9214 14.0937 53.8397 14.5207 53.6764 14.908C53.5131 15.2954 53.2727 15.629 52.9554 15.909C52.6427 16.189 52.2531 16.4084 51.7864 16.567C51.3244 16.721 50.7901 16.798 50.1834 16.798H48.5734V20.55H47.2224V10.519H50.1834ZM59.7135 16.231C59.7135 15.9417 59.6715 15.678 59.5875 15.44C59.5081 15.1974 59.3891 14.9897 59.2305 14.817C59.0765 14.6397 58.8875 14.5044 58.6635 14.411C58.4395 14.313 58.1851 14.264 57.9005 14.264C57.3031 14.264 56.8295 14.439 56.4795 14.789C56.1341 15.1344 55.9195 15.615 55.8355 16.231H59.7135ZM60.7215 19.556C60.5675 19.7427 60.3831 19.906 60.1685 20.046C59.9538 20.1814 59.7228 20.2934 59.4755 20.382C59.2328 20.4707 58.9808 20.536 58.7195 20.578C58.4581 20.6247 58.1991 20.648 57.9425 20.648C57.4525 20.648 56.9998 20.5664 56.5845 20.403C56.1738 20.235 55.8168 19.9924 55.5135 19.675C55.2148 19.353 54.9815 18.9564 54.8135 18.485C54.6455 18.0137 54.5615 17.4724 54.5615 16.861C54.5615 16.3664 54.6361 15.9044 54.7855 15.475C54.9395 15.0457 55.1588 14.6747 55.4435 14.362C55.7281 14.0447 56.0758 13.7974 56.4865 13.62C56.8971 13.438 57.3591 13.347 57.8725 13.347C58.2971 13.347 58.6891 13.4194 59.0485 13.564C59.4125 13.704 59.7251 13.9094 59.9865 14.18C60.2525 14.446 60.4601 14.7774 60.6095 15.174C60.7588 15.566 60.8335 16.014 60.8335 16.518C60.8335 16.714 60.8125 16.8447 60.7705 16.91C60.7285 16.9754 60.6491 17.008 60.5325 17.008H55.7935C55.8075 17.456 55.8681 17.8457 55.9755 18.177C56.0875 18.5084 56.2415 18.786 56.4375 19.01C56.6335 19.2294 56.8668 19.395 57.1375 19.507C57.4081 19.6144 57.7115 19.668 58.0475 19.668C58.3601 19.668 58.6285 19.633 58.8525 19.563C59.0811 19.4884 59.2771 19.409 59.4405 19.325C59.6038 19.241 59.7391 19.164 59.8465 19.094C59.9585 19.0194 60.0541 18.982 60.1335 18.982C60.2361 18.982 60.3155 19.0217 60.3715 19.101L60.7215 19.556ZM64.4863 20.662C63.9263 20.662 63.4946 20.5057 63.1913 20.193C62.8926 19.8804 62.7433 19.43 62.7433 18.842V14.502H61.8893C61.8146 14.502 61.7516 14.481 61.7003 14.439C61.6489 14.3924 61.6233 14.3224 61.6233 14.229V13.732L62.7853 13.585L63.0723 11.394C63.0863 11.324 63.1166 11.268 63.1633 11.226C63.2146 11.1794 63.2799 11.156 63.3593 11.156H63.9893V13.599H66.0403V14.502H63.9893V18.758C63.9893 19.0567 64.0616 19.2784 64.2063 19.423C64.3509 19.5677 64.5376 19.64 64.7663 19.64C64.8969 19.64 65.0089 19.6237 65.1023 19.591C65.2003 19.5537 65.2843 19.514 65.3543 19.472C65.4243 19.43 65.4826 19.3927 65.5293 19.36C65.5806 19.3227 65.6249 19.304 65.6623 19.304C65.7276 19.304 65.7859 19.3437 65.8373 19.423L66.2013 20.018C65.9866 20.2187 65.7276 20.3774 65.4243 20.494C65.1209 20.606 64.8083 20.662 64.4863 20.662ZM72.5609 11.625V15.132H76.6839V16.238H72.5609V20.55H71.2029V10.519H77.3839V11.625H72.5609ZM81.1987 13.347C81.7167 13.347 82.1833 13.4334 82.5987 13.606C83.014 13.7787 83.3687 14.0237 83.6627 14.341C83.9567 14.6584 84.1807 15.0434 84.3347 15.496C84.4933 15.944 84.5727 16.4457 84.5727 17.001C84.5727 17.561 84.4933 18.065 84.3347 18.513C84.1807 18.961 83.9567 19.3437 83.6627 19.661C83.3687 19.9784 83.014 20.2234 82.5987 20.396C82.1833 20.564 81.7167 20.648 81.1987 20.648C80.676 20.648 80.2047 20.564 79.7847 20.396C79.3693 20.2234 79.0147 19.9784 78.7207 19.661C78.4267 19.3437 78.2003 18.961 78.0417 18.513C77.8877 18.065 77.8107 17.561 77.8107 17.001C77.8107 16.4457 77.8877 15.944 78.0417 15.496C78.2003 15.0434 78.4267 14.6584 78.7207 14.341C79.0147 14.0237 79.3693 13.7787 79.7847 13.606C80.2047 13.4334 80.676 13.347 81.1987 13.347ZM81.1987 19.675C81.8987 19.675 82.4213 19.4417 82.7667 18.975C83.112 18.5037 83.2847 17.848 83.2847 17.008C83.2847 16.1634 83.112 15.5054 82.7667 15.034C82.4213 14.5627 81.8987 14.327 81.1987 14.327C80.844 14.327 80.5337 14.3877 80.2677 14.509C80.0063 14.6304 79.787 14.8054 79.6097 15.034C79.437 15.2627 79.3063 15.545 79.2177 15.881C79.1337 16.2124 79.0917 16.588 79.0917 17.008C79.0917 17.848 79.2643 18.5037 79.6097 18.975C79.9597 19.4417 80.4893 19.675 81.1987 19.675ZM89.142 13.347C89.66 13.347 90.1267 13.4334 90.542 13.606C90.9573 13.7787 91.312 14.0237 91.606 14.341C91.9 14.6584 92.124 15.0434 92.278 15.496C92.4367 15.944 92.516 16.4457 92.516 17.001C92.516 17.561 92.4367 18.065 92.278 18.513C92.124 18.961 91.9 19.3437 91.606 19.661C91.312 19.9784 90.9573 20.2234 90.542 20.396C90.1267 20.564 89.66 20.648 89.142 20.648C88.6193 20.648 88.148 20.564 87.728 20.396C87.3127 20.2234 86.958 19.9784 86.664 19.661C86.37 19.3437 86.1437 18.961 85.985 18.513C85.831 18.065 85.754 17.561 85.754 17.001C85.754 16.4457 85.831 15.944 85.985 15.496C86.1437 15.0434 86.37 14.6584 86.664 14.341C86.958 14.0237 87.3127 13.7787 87.728 13.606C88.148 13.4334 88.6193 13.347 89.142 13.347ZM89.142 19.675C89.842 19.675 90.3647 19.4417 90.71 18.975C91.0553 18.5037 91.228 17.848 91.228 17.008C91.228 16.1634 91.0553 15.5054 90.71 15.034C90.3647 14.5627 89.842 14.327 89.142 14.327C88.7873 14.327 88.477 14.3877 88.211 14.509C87.9497 14.6304 87.7303 14.8054 87.553 15.034C87.3803 15.2627 87.2497 15.545 87.161 15.881C87.077 16.2124 87.035 16.588 87.035 17.008C87.035 17.848 87.2077 18.5037 87.553 18.975C87.903 19.4417 88.4327 19.675 89.142 19.675ZM98.7164 15.146C98.483 14.8334 98.231 14.6164 97.9604 14.495C97.6897 14.369 97.3864 14.306 97.0504 14.306C96.3924 14.306 95.886 14.5417 95.5314 15.013C95.1767 15.4844 94.9994 16.1564 94.9994 17.029C94.9994 17.491 95.039 17.8877 95.1184 18.219C95.1977 18.5457 95.3144 18.8164 95.4684 19.031C95.6224 19.241 95.8114 19.395 96.0354 19.493C96.2594 19.591 96.5137 19.64 96.7984 19.64C97.209 19.64 97.566 19.5467 97.8694 19.36C98.1774 19.1734 98.4597 18.9097 98.7164 18.569V15.146ZM99.9624 10.239V20.55H99.2204C99.043 20.55 98.931 20.4637 98.8844 20.291L98.7724 19.43C98.469 19.794 98.1237 20.088 97.7364 20.312C97.349 20.536 96.901 20.648 96.3924 20.648C95.9864 20.648 95.6177 20.571 95.2864 20.417C94.955 20.2584 94.6727 20.0274 94.4394 19.724C94.206 19.4207 94.0264 19.0427 93.9004 18.59C93.7744 18.1374 93.7114 17.617 93.7114 17.029C93.7114 16.5064 93.7814 16.021 93.9214 15.573C94.0614 15.1204 94.262 14.7284 94.5234 14.397C94.7847 14.0657 95.1044 13.8067 95.4824 13.62C95.865 13.4287 96.2944 13.333 96.7704 13.333C97.2044 13.333 97.5754 13.4077 97.8834 13.557C98.196 13.7017 98.4737 13.9047 98.7164 14.166V10.239H99.9624ZM106.06 14.628C106.004 14.7307 105.918 14.782 105.801 14.782C105.731 14.782 105.652 14.7564 105.563 14.705C105.475 14.6537 105.365 14.5977 105.234 14.537C105.108 14.4717 104.957 14.4134 104.779 14.362C104.602 14.306 104.392 14.278 104.149 14.278C103.939 14.278 103.75 14.306 103.582 14.362C103.414 14.4134 103.27 14.4857 103.148 14.579C103.032 14.6724 102.941 14.782 102.875 14.908C102.815 15.0294 102.784 15.1624 102.784 15.307C102.784 15.489 102.836 15.6407 102.938 15.762C103.046 15.8834 103.186 15.9884 103.358 16.077C103.531 16.1657 103.727 16.245 103.946 16.315C104.166 16.3804 104.39 16.4527 104.618 16.532C104.852 16.6067 105.078 16.6907 105.297 16.784C105.517 16.8774 105.713 16.994 105.885 17.134C106.058 17.274 106.196 17.4467 106.298 17.652C106.406 17.8527 106.459 18.0954 106.459 18.38C106.459 18.7067 106.401 19.01 106.284 19.29C106.168 19.5654 105.995 19.8057 105.766 20.011C105.538 20.2117 105.258 20.3704 104.926 20.487C104.595 20.6037 104.212 20.662 103.778 20.662C103.284 20.662 102.836 20.5827 102.434 20.424C102.033 20.2607 101.692 20.053 101.412 19.801L101.706 19.325C101.744 19.2644 101.788 19.2177 101.839 19.185C101.891 19.1524 101.956 19.136 102.035 19.136C102.119 19.136 102.208 19.1687 102.301 19.234C102.395 19.2994 102.507 19.3717 102.637 19.451C102.773 19.5304 102.936 19.6027 103.127 19.668C103.319 19.7334 103.557 19.766 103.841 19.766C104.084 19.766 104.296 19.7357 104.478 19.675C104.66 19.6097 104.812 19.5234 104.933 19.416C105.055 19.3087 105.143 19.185 105.199 19.045C105.26 18.905 105.29 18.7557 105.29 18.597C105.29 18.401 105.237 18.24 105.129 18.114C105.027 17.9834 104.889 17.8737 104.716 17.785C104.544 17.6917 104.345 17.6124 104.121 17.547C103.902 17.477 103.676 17.4047 103.442 17.33C103.214 17.2554 102.987 17.1714 102.763 17.078C102.544 16.98 102.348 16.8587 102.175 16.714C102.003 16.5694 101.863 16.392 101.755 16.182C101.653 15.9674 101.601 15.7084 101.601 15.405C101.601 15.1344 101.657 14.8754 101.769 14.628C101.881 14.376 102.045 14.1567 102.259 13.97C102.474 13.7787 102.738 13.627 103.05 13.515C103.363 13.403 103.72 13.347 104.121 13.347C104.588 13.347 105.006 13.4217 105.374 13.571C105.748 13.7157 106.07 13.9164 106.34 14.173L106.06 14.628Z" fill="#253D4E"/>
<defs>
<clipPath id="clip0_6511_7438">
<rect width="30" height="30" fill="white" transform="translate(0.941406 0.0500488)"/>
</clipPath>
<clipPath id="clip1_6511_7438">
<rect width="30" height="30" fill="white" transform="translate(0.941406 0.0500488)"/>
</clipPath>
<clipPath id="clip2_6511_7438">
<rect width="30" height="30" fill="white" transform="translate(0.941406 0.0500488)"/>
</clipPath>
</defs>
</svg>
